<svg width="48" height="50" viewBox="0 0 48 50" fill="none" xmlns="http://www.w3.org/2000/svg">
<g clip-path="url(#clip0_313_676)">
<path d="M46.9488 28.918C46.3155 26.9271 45.7052 24.9206 45.2475 22.8828C45.0141 21.8425 45.0808 20.7174 45.118 19.6341C45.1834 17.7604 45.2539 15.8984 44.7872 14.0573C44.25 11.9336 42.9718 10.4857 40.9422 9.79297C39.3832 9.26042 37.7768 8.87109 36.1985 8.39193C34.0446 7.73828 32.1433 6.69401 30.8856 4.70312C29.9778 3.26693 29.4945 1.68099 29.2817 0H18.7032C18.3557 4.09375 16.0518 7.01302 12.1056 8.28516C10.6286 8.76172 9.11831 9.13281 7.62724 9.56901C4.72203 10.418 3.21302 12.4609 2.95147 15.444C2.82455 16.8945 2.83993 18.3685 2.92199 19.8255C3.04122 21.9622 2.64249 23.9987 2.00658 26.0091C1.58092 27.3542 1.15014 28.6992 0.706543 30.0378C0.00908827 32.1419 -0.105017 34.2943 0.0783208 36.4922C0.353969 39.7982 0.57577 43.1107 0.820648 46.4193C0.903984 47.5365 0.988602 48.6523 1.07322 49.7852H4.52075C4.53998 49.7305 4.57075 49.6862 4.5669 49.6445C4.34382 46.8008 4.96307 44.0846 5.75924 41.3932C6.80158 37.8685 7.22979 34.2695 6.97722 30.5964C6.92722 29.8776 7.08876 29.3034 7.50416 28.7031C9.72473 25.4896 10.0581 21.9492 9.1401 18.2188C9.05805 17.888 8.95805 17.5612 8.89138 17.2279C8.7965 16.7591 8.99651 16.4036 9.38241 16.3112C9.78627 16.2148 10.1414 16.4076 10.2478 16.8698C10.4927 17.9284 10.6889 18.9987 10.9209 20.0599C10.9786 20.3216 11.0543 20.5977 11.194 20.8203C11.6222 21.5078 12.0876 22.1693 12.5325 22.8464C12.8812 23.3776 13.3659 23.6289 13.9928 23.6276C16.5082 23.6237 19.025 23.6302 21.5404 23.625C22.6199 23.6224 23.2751 22.9648 23.2853 21.8594C23.2982 20.5417 23.2725 19.2227 23.3033 17.9049C23.3097 17.6432 23.4264 17.3138 23.6097 17.1471C23.752 17.0182 24.1418 16.9922 24.2995 17.1016C24.4982 17.2396 24.6777 17.5599 24.6841 17.806C24.7213 19.1563 24.6956 20.5065 24.7059 21.8581C24.7136 22.806 25.229 23.4557 26.0662 23.6016C26.2072 23.6263 26.3534 23.625 26.497 23.625C28.965 23.6263 31.433 23.6172 33.901 23.6315C34.6062 23.6354 35.1421 23.3763 35.5126 22.7669C35.5216 22.7526 35.528 22.7383 35.5382 22.7253C36.5344 21.4635 37.2601 20.0898 37.3575 18.4271C37.3832 17.9805 37.5485 17.5404 37.6627 17.1003C37.8306 16.4544 38.1434 16.1992 38.6063 16.3099C39.0601 16.4193 39.1768 16.8151 39.0499 17.4661C38.8101 18.6914 38.5319 19.9167 38.4204 21.1563C38.1588 24.0495 39.0153 26.6484 40.6704 28.987C40.9294 29.3516 41.0576 29.707 41.0204 30.1563C40.6525 34.5872 41.4076 38.8685 42.6795 43.0872C43.2936 45.1237 43.5526 47.2174 43.4256 49.3516C43.4179 49.4792 43.4256 49.6081 43.4256 49.7695H46.918C46.9937 48.7969 47.0744 47.8268 47.145 46.8568C47.4155 43.1419 47.6616 39.4245 47.9604 35.7109C48.1501 33.3555 47.6552 31.1315 46.9501 28.9154L46.9488 28.918ZM22.7917 13.4701C22.4738 13.7878 22.0635 13.7461 21.6622 13.3281C20.2378 11.8411 18.5109 11.0964 16.4647 11.1328C16.2403 11.1328 16.0172 11.138 15.7928 11.1328C15.3377 11.1185 15.0467 10.8398 15.0415 10.4232C15.0364 10.0091 15.3121 9.66797 15.7723 9.69662C16.8352 9.76302 17.916 9.80339 18.9506 10.0339C20.4212 10.362 21.6327 11.224 22.6764 12.319C23.0802 12.7435 23.1148 13.1458 22.7905 13.4714L22.7917 13.4701ZM32.0869 11.1315C31.8792 11.1315 31.6702 11.1315 31.4625 11.1315C29.4906 11.1107 27.8111 11.8216 26.4175 13.2357C26.3726 13.2813 26.329 13.3294 26.2829 13.3737C25.9046 13.7396 25.4867 13.7708 25.1854 13.457C24.8867 13.1458 24.9046 12.7539 25.2572 12.3763C26.3483 11.207 27.6367 10.3242 29.1932 9.98438C30.1522 9.77474 31.1535 9.74349 32.1394 9.6888C32.6702 9.66016 32.9638 9.98698 32.9497 10.4375C32.9356 10.8841 32.6253 11.1328 32.0869 11.1302V11.1315Z" fill="black"/>
<path d="M37.0063 23.1771C36.8806 23.323 36.8319 23.3646 36.8011 23.4167C36.0793 24.6498 34.9921 25.1094 33.6075 25.0847C31.4292 25.0456 29.2484 25.0534 27.0688 25.0821C25.9085 25.0977 24.829 24.9584 23.9995 23.9701C23.1777 24.9232 22.1405 25.099 21.0071 25.0821C18.9404 25.0521 16.8711 25.0196 14.8057 25.0912C13.2249 25.1459 11.9223 24.7696 11.094 23.2982C11.0889 23.2878 11.0646 23.2891 11.003 23.2722C10.9556 23.5717 10.912 23.8685 10.8607 24.1641C10.7543 24.7852 10.5338 25.4115 10.5569 26.0274C10.6428 28.237 10.8466 30.4427 10.9415 32.6537C11.121 36.8464 11.2966 41.0404 11.3851 45.2357C11.4184 46.8217 11.2069 48.4128 11.1069 50.0013H36.8794C36.8794 49.8881 36.8819 49.7748 36.8755 49.6615C36.7755 47.8763 36.5999 46.0925 36.587 44.3073C36.5447 38.4115 37.0499 32.5391 37.4281 26.6628C37.5037 25.4779 37.0371 24.4219 37.005 23.1771H37.0063ZM23.57 48.0404C23.1662 48.0339 22.8341 47.6823 22.8546 47.2826C22.8751 46.8998 23.2059 46.5886 23.5893 46.5925C23.997 46.5977 24.3111 46.9362 24.2944 47.3503C24.2777 47.7409 23.9572 48.0456 23.57 48.0391V48.0404ZM30.0535 43.2474C29.8561 43.5625 29.6433 43.8685 29.4381 44.1784C29.0702 44.7344 28.5535 45.0065 27.8958 45.0079C27.3509 45.0079 26.8073 45.0079 26.2624 45.0079C26.2624 44.9909 26.2624 44.9753 26.2624 44.9584C25.5919 44.9584 24.9047 45.0469 24.2547 44.9284C23.7803 44.8425 23.3572 44.7357 22.9021 44.9532C22.779 45.0118 22.62 45.0039 22.4764 45.0053C21.4033 45.0092 20.3302 45.0092 19.2584 45.0065C18.6225 45.0052 18.1109 44.7526 17.7481 44.2123C17.5314 43.8894 17.3096 43.5717 17.1019 43.2435C16.8352 42.8217 16.8891 42.4063 17.2288 42.1654C17.5724 41.9219 17.9737 42.0183 18.266 42.4141C18.275 42.4271 18.2891 42.4388 18.2942 42.4532C18.6853 43.4232 19.402 43.6993 20.3917 43.5704C21.0379 43.4857 21.7033 43.5404 22.3585 43.5599C22.7392 43.5717 22.8726 43.4102 22.8597 43.0378C22.8431 42.5339 22.8482 42.03 22.8585 41.5261C22.8687 40.9948 23.1495 40.6602 23.57 40.6563C23.997 40.6524 24.2765 40.9818 24.2829 41.5131C24.2893 42.017 24.2957 42.5209 24.2816 43.0248C24.2713 43.3881 24.3944 43.5638 24.779 43.5586C25.788 43.5443 26.797 43.5664 27.8048 43.5417C27.9766 43.5378 28.1868 43.4063 28.306 43.2683C28.5266 43.0144 28.6843 42.7058 28.8817 42.4297C29.165 42.0313 29.5779 41.9349 29.9176 42.1745C30.2651 42.4193 30.3189 42.8151 30.0497 43.2474H30.0535ZM31.5177 36.5196C30.1574 38.6094 30.2228 38.6276 27.774 38.5925C27.5022 38.5886 27.2291 38.5925 26.9573 38.5925C26.465 38.5925 25.9701 38.612 25.479 38.6016C25.3149 38.5977 25.1508 38.5912 24.988 38.5795C24.5854 38.5495 24.1944 38.3815 23.7944 38.293C23.6585 38.2631 23.5059 38.2605 23.3713 38.2904C22.9867 38.3776 22.6097 38.5677 22.2277 38.5769C20.8674 38.612 19.5045 38.586 18.143 38.5912C17.3929 38.5938 16.816 38.2826 16.4006 37.6524C16.1339 37.2474 15.8557 36.849 15.5967 36.4388C15.3288 36.0144 15.3903 35.6094 15.7416 35.3672C16.0903 35.1263 16.4827 35.224 16.775 35.6368C16.9801 35.9271 17.2032 36.2123 17.3622 36.5274C17.616 37.0339 17.9981 37.168 18.5366 37.1524C19.7212 37.1159 20.9071 37.1446 22.0931 37.1394C22.7238 37.1368 22.8572 37.0013 22.861 36.3659C22.8649 35.7149 22.8559 35.0638 22.8636 34.4141C22.87 33.8529 23.1623 33.5066 23.5982 33.5183C24.0226 33.53 24.2854 33.8568 24.2893 34.3985C24.2944 35.0821 24.2841 35.7657 24.2931 36.448C24.2995 36.9375 24.4829 37.1342 24.9624 37.1368C26.3086 37.1459 27.6535 37.155 28.9997 37.1237C29.2125 37.1185 29.4702 36.9441 29.6189 36.7696C29.8907 36.4532 30.0933 36.0769 30.3292 35.7292C30.66 35.2435 31.042 35.1185 31.4151 35.3646C31.7831 35.6081 31.8279 36.0469 31.519 36.5196H31.5177ZM32.5895 29.6394C32.251 30.1719 31.9049 30.7006 31.5356 31.211C31.1433 31.7539 30.5984 32.0508 29.9317 32.0547C28.2663 32.0664 26.5983 32.0873 24.9342 32.0417C24.4803 32.0287 24.0316 31.7917 23.4585 31.6211C23.0585 31.9649 22.479 32.0756 21.8482 32.0677C20.3905 32.0521 18.9327 32.0495 17.475 32.0677C16.5942 32.0795 15.9339 31.7201 15.457 30.9792C15.1942 30.5704 14.9198 30.1706 14.6544 29.7644C14.3211 29.2552 14.3531 28.8256 14.7377 28.5743C15.1108 28.3295 15.4942 28.4571 15.8224 28.9401C16.1032 29.3555 16.3429 29.8073 16.6711 30.1797C16.8622 30.3959 17.1878 30.6042 17.457 30.6107C18.9776 30.6511 20.5007 30.6381 22.0225 30.6263C22.6174 30.6211 22.8533 30.3581 22.8585 29.7435C22.8662 28.9792 22.8559 28.2149 22.8623 27.4493C22.8662 26.862 23.1187 26.5404 23.5662 26.5326C24.0354 26.5235 24.2867 26.8464 24.2893 27.4675C24.2918 28.1993 24.2867 28.931 24.2906 29.6641C24.2944 30.3737 24.5406 30.6263 25.2534 30.6289C26.6957 30.6342 28.1368 30.6224 29.5792 30.6355C30.0215 30.6394 30.3433 30.4987 30.5766 30.1029C30.8318 29.6706 31.1202 29.2592 31.4087 28.849C31.6895 28.4506 32.1087 28.3607 32.4472 28.6042C32.7805 28.8438 32.8472 29.2344 32.5908 29.6381L32.5895 29.6394Z" fill="black"/>
</g>
<defs>
<clipPath id="clip0_313_676">
<rect width="48" height="50" fill="white"/>
</clipPath>
</defs>
</svg>
