<svg width="23" height="46" viewBox="0 0 23 46" fill="none" xmlns="http://www.w3.org/2000/svg">
<path d="M23 19.9228V2.36332C23 1.06349 21.965 0 20.7 0H2.3C1.035 0 0 1.06349 0 2.36332V19.9228C0 20.7499 0.413999 21.5298 1.127 21.9552L10.741 27.8872L8.464 33.4173L3.358 33.8664C2.3 33.9609 1.886 35.2607 2.668 35.9461L6.555 39.3965L5.382 44.5486C5.152 45.5648 6.233 46.3683 7.107 45.8247L11.5 43.0833L15.893 45.8011C16.767 46.3447 17.848 45.5412 17.618 44.5249L16.445 39.3729L20.332 35.9224C21.091 35.2371 20.7 33.9373 19.665 33.8427L14.559 33.3937L12.282 27.8635L21.896 21.9316C22.586 21.5298 23 20.7736 23 19.9228ZM13.8 24.1767L11.5 25.5947L9.2 24.1767V2.36332H13.8V24.1767Z" fill="white"/>
</svg>
