<svg width="42" height="36" viewBox="0 0 42 36" fill="none" xmlns="http://www.w3.org/2000/svg">
<path d="M15.1584 8.32875C15.2928 8.05982 15.5049 7.83747 15.7671 7.69054C16.0294 7.54361 16.3298 7.47888 16.6293 7.50475C16.9288 7.53062 17.2137 7.64589 17.4469 7.83561C17.6801 8.02534 17.8509 8.28076 17.9372 8.56875L21.3497 19.9463L24.1622 14.3287C24.2868 14.0796 24.4783 13.8701 24.7152 13.7237C24.9522 13.5773 25.2252 13.4997 25.5037 13.4997C25.7823 13.4997 26.0553 13.5773 26.2923 13.7237C26.5292 13.8701 26.7207 14.0796 26.8453 14.3287L29.4272 19.5H38.4984C39.8489 16.7156 40.5341 13.6554 40.5 10.5609C40.4409 4.73812 35.7694 0 30.0862 0C25.5778 0 22.5862 2.76938 21 4.78125C19.4175 2.76656 16.4222 0 11.9137 0C6.2306 0 1.55904 4.73812 1.49998 10.5609C1.47569 12.5717 1.758 14.5743 2.33717 16.5H11.0728L15.1584 8.32875Z" fill="black"/>
<path d="M27.1584 21.6712L25.5 18.3543L22.3416 24.6712C22.2169 24.9203 22.0254 25.1297 21.7885 25.2761C21.5515 25.4225 21.2785 25.5 21 25.5C20.9581 25.5 20.915 25.4981 20.8706 25.4943C20.5704 25.4694 20.2846 25.3547 20.0505 25.1651C19.8164 24.9754 19.6448 24.7197 19.5581 24.4312L16.1456 13.0537L13.3331 18.6712C13.2091 18.919 13.0189 19.1276 12.7836 19.2739C12.5483 19.4202 12.2771 19.4984 12 19.5H3.50156C4.37656 21.3306 5.54125 23.1325 6.99563 24.9056C8.75531 27.0506 11.9456 30.48 19.3134 35.4815C19.8103 35.8221 20.3986 36.0043 21.0009 36.0043C21.6033 36.0043 22.1916 35.8221 22.6884 35.4815C30.0563 30.48 33.2466 27.0506 35.0062 24.9056C35.64 24.1341 36.2345 23.3312 36.7875 22.5H28.5C28.2215 22.5 27.9485 22.4225 27.7115 22.2761C27.4746 22.1297 27.2831 21.9203 27.1584 21.6712ZM40.5 19.5H38.4984C37.9998 20.5392 37.428 21.5417 36.7875 22.5H40.5C40.8978 22.5 41.2794 22.3419 41.5607 22.0606C41.842 21.7793 42 21.3978 42 21C42 20.6021 41.842 20.2206 41.5607 19.9393C41.2794 19.658 40.8978 19.5 40.5 19.5ZM1.5 16.5C1.10218 16.5 0.720644 16.658 0.43934 16.9393C0.158035 17.2206 0 17.6021 0 18C0 18.3978 0.158035 18.7793 0.43934 19.0606C0.720644 19.3419 1.10218 19.5 1.5 19.5H3.50156C3.03761 18.5311 2.64836 17.5282 2.33719 16.5H1.5Z" fill="black"/>
</svg>
