<?xml version="1.0" encoding="UTF-8"?>
<svg id="Capa_1" data-name="Capa 1" xmlns="http://www.w3.org/2000/svg" xmlns:xlink="http://www.w3.org/1999/xlink" version="1.1" viewBox="0 0 391.7 995">
  <defs>
    <style>
      .cls-1 {
        fill: url(#Degradado_sin_nombre_5);
      }

      .cls-1, .cls-2, .cls-3, .cls-4, .cls-5, .cls-6, .cls-7, .cls-8, .cls-9, .cls-10 {
        stroke-width: 0px;
      }

      .cls-2 {
        fill: url(#Degradado_sin_nombre_4);
      }

      .cls-3 {
        fill: url(#Degradado_sin_nombre_3);
      }

      .cls-4 {
        fill: url(#Degradado_sin_nombre_2);
      }

      .cls-5 {
        fill: url(#Degradado_sin_nombre_8);
      }

      .cls-6 {
        fill: url(#Degradado_sin_nombre_9);
      }

      .cls-7 {
        fill: url(#Degradado_sin_nombre_7);
      }

      .cls-8 {
        fill: url(#Degradado_sin_nombre_6);
      }

      .cls-9 {
        fill: url(#Degradado_sin_nombre);
      }

      .cls-10 {
        fill: #fff;
      }
    </style>
    <linearGradient id="Degradado_sin_nombre" data-name="Degradado sin nombre" x1="155.2" y1="-879.1" x2="227" y2="-879.1" gradientTransform="translate(0 931.7)" gradientUnits="userSpaceOnUse">
      <stop offset="0" stop-color="#efa22b"/>
      <stop offset="0" stop-color="#f7db51"/>
      <stop offset=".3" stop-color="#ffc739"/>
      <stop offset=".5" stop-color="#fff87b"/>
      <stop offset=".6" stop-color="#ffc839"/>
      <stop offset=".7" stop-color="#ffce39"/>
      <stop offset=".8" stop-color="#ffef7b"/>
      <stop offset="1" stop-color="#e09f26"/>
    </linearGradient>
    <linearGradient id="Degradado_sin_nombre_2" data-name="Degradado sin nombre 2" x1="26.2" y1="-818.3" x2="356" y2="-818.3" gradientTransform="translate(0 931.7)" gradientUnits="userSpaceOnUse">
      <stop offset="0" stop-color="#efa22b"/>
      <stop offset="0" stop-color="#f7db51"/>
      <stop offset=".3" stop-color="#ffc739"/>
      <stop offset=".5" stop-color="#fff87b"/>
      <stop offset=".6" stop-color="#ffc839"/>
      <stop offset=".7" stop-color="#ffce39"/>
      <stop offset=".8" stop-color="#ffef7b"/>
      <stop offset="1" stop-color="#e09f26"/>
    </linearGradient>
    <linearGradient id="Degradado_sin_nombre_3" data-name="Degradado sin nombre 3" x1="26.2" y1="-771" x2="356" y2="-771" gradientTransform="translate(0 931.7)" gradientUnits="userSpaceOnUse">
      <stop offset="0" stop-color="#efa22b"/>
      <stop offset="0" stop-color="#f7db51"/>
      <stop offset=".3" stop-color="#ffc739"/>
      <stop offset=".5" stop-color="#fff87b"/>
      <stop offset=".6" stop-color="#ffc839"/>
      <stop offset=".7" stop-color="#ffce39"/>
      <stop offset=".8" stop-color="#ffef7b"/>
      <stop offset="1" stop-color="#e09f26"/>
    </linearGradient>
    <linearGradient id="Degradado_sin_nombre_4" data-name="Degradado sin nombre 4" x1="26.2" y1="-292.9" x2="356" y2="-292.9" gradientTransform="translate(0 931.7)" gradientUnits="userSpaceOnUse">
      <stop offset="0" stop-color="#efa22b"/>
      <stop offset="0" stop-color="#f7db51"/>
      <stop offset=".3" stop-color="#ffc739"/>
      <stop offset=".5" stop-color="#fff87b"/>
      <stop offset=".6" stop-color="#ffc839"/>
      <stop offset=".7" stop-color="#ffce39"/>
      <stop offset=".8" stop-color="#ffef7b"/>
      <stop offset="1" stop-color="#e09f26"/>
    </linearGradient>
    <linearGradient id="Degradado_sin_nombre_5" data-name="Degradado sin nombre 5" x1="234.5" y1="105.8" x2="79.8" y2="14.4" gradientTransform="translate(0 931.7)" gradientUnits="userSpaceOnUse">
      <stop offset="0" stop-color="#efa22b"/>
      <stop offset="0" stop-color="#f7db51"/>
      <stop offset=".3" stop-color="#ffc739"/>
      <stop offset=".5" stop-color="#fff87b"/>
      <stop offset=".6" stop-color="#ffc839"/>
      <stop offset=".7" stop-color="#ffce39"/>
      <stop offset=".8" stop-color="#ffef7b"/>
      <stop offset="1" stop-color="#e09f26"/>
    </linearGradient>
    <linearGradient id="Degradado_sin_nombre_6" data-name="Degradado sin nombre 6" x1="254.7" y1="71.5" x2="100.1" y2="-19.9" gradientTransform="translate(0 931.7)" gradientUnits="userSpaceOnUse">
      <stop offset="0" stop-color="#efa22b"/>
      <stop offset="0" stop-color="#f7db51"/>
      <stop offset=".3" stop-color="#ffc739"/>
      <stop offset=".5" stop-color="#fff87b"/>
      <stop offset=".6" stop-color="#ffc839"/>
      <stop offset=".7" stop-color="#ffce39"/>
      <stop offset=".8" stop-color="#ffef7b"/>
      <stop offset="1" stop-color="#e09f26"/>
    </linearGradient>
    <linearGradient id="Degradado_sin_nombre_7" data-name="Degradado sin nombre 7" x1="273.4" y1="40" x2="118.7" y2="-51.4" gradientTransform="translate(0 931.7)" gradientUnits="userSpaceOnUse">
      <stop offset="0" stop-color="#efa22b"/>
      <stop offset="0" stop-color="#f7db51"/>
      <stop offset=".3" stop-color="#ffc739"/>
      <stop offset=".5" stop-color="#fff87b"/>
      <stop offset=".6" stop-color="#ffc839"/>
      <stop offset=".7" stop-color="#ffce39"/>
      <stop offset=".8" stop-color="#ffef7b"/>
      <stop offset="1" stop-color="#e09f26"/>
    </linearGradient>
    <linearGradient id="Degradado_sin_nombre_8" data-name="Degradado sin nombre 8" x1="296.1" y1="1.5" x2="141.5" y2="-89.9" gradientTransform="translate(0 931.7)" gradientUnits="userSpaceOnUse">
      <stop offset="0" stop-color="#efa22b"/>
      <stop offset="0" stop-color="#f7db51"/>
      <stop offset=".3" stop-color="#ffc739"/>
      <stop offset=".5" stop-color="#fff87b"/>
      <stop offset=".6" stop-color="#ffc839"/>
      <stop offset=".7" stop-color="#ffce39"/>
      <stop offset=".8" stop-color="#ffef7b"/>
      <stop offset="1" stop-color="#e09f26"/>
    </linearGradient>
    <linearGradient id="Degradado_sin_nombre_9" data-name="Degradado sin nombre 9" x1="317" y1="-33.8" x2="162.3" y2="-125.2" gradientTransform="translate(0 931.7)" gradientUnits="userSpaceOnUse">
      <stop offset="0" stop-color="#efa22b"/>
      <stop offset="0" stop-color="#f7db51"/>
      <stop offset=".3" stop-color="#ffc739"/>
      <stop offset=".5" stop-color="#fff87b"/>
      <stop offset=".6" stop-color="#ffc839"/>
      <stop offset=".7" stop-color="#ffce39"/>
      <stop offset=".8" stop-color="#ffef7b"/>
      <stop offset="1" stop-color="#e09f26"/>
    </linearGradient>
  </defs>
  <g>
    <path class="cls-9" d="M192.3,19.3l7.6,23.4c.2.5.7.9,1.2.9h24.6c1.2,0,1.8,1.6.8,2.3l-19.9,14.4c-.5.3-.6.9-.5,1.4l7.6,23.4c.4,1.2-1,2.2-2,1.4l-19.9-14.4c-.5-.3-1-.3-1.5,0l-19.9,14.4c-1,.7-2.3-.2-2-1.4l7.6-23.4c.2-.5,0-1.1-.5-1.4l-19.9-14.4c-1-.7-.5-2.3.8-2.3h24.6c.5,0,1-.4,1.2-.9l7.6-23.4c.4-1.2,2-1.2,2.4,0h0Z"/>
    <path class="cls-4" d="M26.2,81.9l164.4,43.8,165.4-43.8v12.1c0,4.1-2.8,7.8-6.8,8.8l-158.6,42L33,102.8c-4-1.1-6.8-4.7-6.8-8.8v-12.1h0Z"/>
    <path class="cls-3" d="M26.2,129.2l164.4,43.8,165.4-43.8v12.1c0,4.1-2.8,7.8-6.8,8.8l-158.6,42-157.6-42c-4-1.1-6.8-4.7-6.8-8.8v-12.1h0Z"/>
    <path class="cls-2" d="M26.2,607.3l164.4,43.8,165.4-43.8v10.7c0,5-3.4,9.3-8.2,10.6l-157.2,41.6-156.2-41.6c-4.8-1.3-8.2-5.6-8.2-10.6v-10.7h0Z"/>
    <path class="cls-10" d="M343.2,183.1c7.6-2,12.8,2.1,12.8,9.9v49.8h0v65.8c0,8.9-8.6,20-17.1,22.1l-32,7.9c-7.3,1.8-12.2-2.2-12.2-9.7v-60c0-5.9-4-9-9.7-7.5l-15.7,4.1c-3.3.9-6.6,5.1-6.6,8.6v259.5c0,5.1,3.4,7.8,8.4,6.5l13.5-3.5c5-1.3,10-7.8,10-13v-129.6c0-8.7,8.2-19.4,16.6-21.7l31.3-8.5c8.1-2.2,13.7,2.1,13.7,10.5v143.6h0v50.2c0,6.5-6.1,14.4-12.4,16.1l-126.3,33c-9.6,2.5-16.3-2.7-16.3-12.7V237.3c0-8.6,8.2-19.2,16.5-21.4l125.7-32.8h-.2Z"/>
    <path class="cls-10" d="M168,363.6l-8.9-2.9,21.8-125.4c1.2-7.2-3.2-14.2-10.3-16.1l-37-10.1c-6.4-1.8-12.9,2.5-13.9,9.1l-18.1,119.1c-.4,2.3-2.6,3.7-4.8,3l-5.1-1.7c-2.3-.8-3.8-2.9-3.8-5.3v-121.6c0-8.3-5.6-15.5-13.6-17.5l-36.9-9.5c-5.5-1.4-10.9,2.8-10.9,8.5v372.6c0,8.7,5.8,16.2,14.2,18.5l30.2,8.2c8.6,2.3,17.1-4.2,17.1-13.1v-169.9c0-5.2,5.1-8.9,10.1-7.3l14.1,4.6c5.7,1.9,9.6,7.2,9.6,13.3v172.3c0,8.8,5.9,16.6,14.4,18.9l33.9,9.3c6.6,1.8,13.2-3.2,13.2-10v-180.3h.2v-45.4c0-9.6-6.1-18.1-15.3-21.1h0l-.2-.2Z"/>
  </g>
  <g>
    <g>
      <path class="cls-10" d="M26.3,839.6c-1.1,0-1.7,0-2.4,0h-2.4c-1.2,0-1.9,0-2.4,0-.6,0-1.2.1-2.5.1s-1.7,0-2.4,0c-.6,0-1.1,0-2.4,0s-2.4-1.1-2.4-2.5,0-2.2,0-2.9c0-.7,0-1.4,0-2.9s0-2.2,0-2.9c0-.7,0-1.4,0-2.9s0-2.2,0-2.9c0-.7-.1-1.4-.1-2.9s0-2.2,0-2.9v-11.5c0-.7,0-1.4,0-2.9v-2.9c0-.7,0-1.4,0-2.9s0-2.2,0-2.9c0-.7,0-1.4,0-2.9s0-2.2,0-2.9v-2.9c0-1.4,0-2.2,0-2.9,0-.7,0-1.4,0-2.9s-.1-2.2-.2-2.9c0-.7-.2-1.4-.2-2.9s0-2.2,0-2.9v-2.9c0-1.4,0-2.2.1-2.9s.1-1.4.1-2.9,0-2.2,0-2.9v-2.9c0-1.6-.1-2.2-.2-2.9,0-.7-.2-1.4-.2-2.9v-17.3c0-1.3,1.3-2.3,2.6-2.3s1.9,0,2.4-.1c.6,0,1.2-.1,2.4-.1h9.6c1.3,0,2.3,1.3,2.3,2.6v2.7c0,.6,0,1.4,0,2.7v5.4c0,1.3,0,2,0,2.7s0,1.4,0,2.7,0,2.1,0,2.7c0,.6,0,1.4,0,2.7s0,2.1-.1,2.7c0,.6,0,1.4,0,2.7s0,2.1,0,2.7c0,.6.1,1.4.1,2.7s0,2.1,0,2.7c0,.7,0,1.4,0,2.7s.3,1.4.9.2c.6-1.3,1-2.2,1.3-2.7.3-.7.7-1.4,1.3-2.7.7-1.3,1.1-2,1.6-2.6.4-.6.9-1.3,1.6-2.6.6-1.3.9-2.2,1.2-2.9.3-.6.6-1.4,1.2-2.7.7-1.3,1.1-2.1,1.4-2.7.2-.6.6-1.4,1.3-2.7.6-1.3,1-2.1,1.3-2.7.3-.6.7-1.4,1.4-2.7.7-1.3,1.1-2.1,1.6-2.6.4-.6.9-1.4,1.6-2.7.7-1.3,1-2.2,1.2-2.7.3-.7.6-1.6,1.2-2.9.7-1.2,2.4-2.1,3.7-2.1s1.9,0,2.5.1c.6,0,1.2.1,2.5.1s1.9-.1,2.5-.2,1.2-.2,2.5-.2,1.9.1,2.5.2c.6,0,1.2.1,2.5.1s1.7.6,1.1,1.9c-.6,1.1-.9,1.9-1,2.5-.2.7-.4,1.4-1.1,2.6-.6,1.2-.9,1.9-1.3,2.4-.3.6-.7,1.1-1.2,2.4-.6,1.2-1,1.9-1.3,2.4-.3.6-.6,1.2-1.2,2.4-.6,1.2-.9,1.9-1.1,2.6s-.4,1.3-1.1,2.5c-.6,1.2-1,1.7-1.4,2.3-.4.6-.9,1.2-1.4,2.3-.6,1.2-.9,1.9-1,2.6-.2.6-.4,1.3-1,2.6-.6,1.1-1,1.7-1.3,2.4-.3.6-.6,1.2-1.2,2.4-.6,1.2-.9,1.9-1.1,2.5-.2.6-.6,1.3-1.1,2.5-.6,1.2-.9,1.9-1.3,2.4-.3.6-.7,1.1-1.3,2.4-.6,1.2-.7,3.1-.2,4.3.4,1.3.7,1.9,1.1,2.6.3.6.7,1.2,1.1,2.6.6,1.2.7,1.9.9,2.6,0,.6.3,1.4.9,2.6s.9,1.9,1.1,2.6c.3.6.6,1.2,1.1,2.6.4,1.2.6,1.9.9,2.6.2.6.3,1.4.9,2.6s.7,1.9.9,2.6c.3.7.4,1.4,1,2.6.6,1.2.7,1.9,1.1,2.6s.6,1.3,1.1,2.6c.6,1.3.7,2,.9,2.6.2.6.4,1.4.9,2.6.6,1.3.9,1.9,1.1,2.6.4.6.7,1.2,1.2,2.5s.7,2,1,2.6c.2.6.4,1.3,1,2.6s.6,2,.9,2.6c.2.7.3,1.4.9,2.7.6,1.2.9,1.9,1.1,2.5.3.6.6,1.3,1.2,2.6.4,1.2-.3,2.3-1.6,2.3s-1.9,0-2.6,0h-2.6c-1.2,0-1.9,0-2.5,0h-7.6c-1.3,0-2.7-.9-3.3-2.1-.4-1.2-.7-1.9-.9-2.6-.2-.6-.4-1.2-1-2.5-.4-1.2-.6-1.9-.9-2.6s-.4-1.3-.9-2.6c-.4-1.2-.7-1.9-.9-2.5s-.6-1.3-.9-2.5c-.6-1.2-.7-1.9-1.1-2.5-.3-.6-.7-1.2-1.1-2.5-.6-1.2-.6-1.9-.7-2.6,0-.6-.3-1.3-.7-2.6-.6-1.2-.7-1.9-1-2.4-.2-.6-.4-1.3-1-2.6s-.7-2-1-2.6c-.2-.6-.6-1.1-.9-2.4-.6-1.2-1.4-1.2-2,0-.9,1.9-1.4,2.9-2,3.7-.6.9-1.1,1.9-2,3.7-.6,1.2-.9,3.2-.9,4.6s0,2.2,0,2.9v2.9c0,1.4,0,2.2,0,2.9v8.7c0,1.4,0,2.2,0,2.9s0,1.4,0,2.9-1.4,2.5-2.7,2.5h0Z"/>
      <path class="cls-10" d="M98.2,839.7c-.6,0-1.4.1-2.7.1s-2.6-1.4-2.6-2.7v-5.8c0-1.4,0-2.2,0-2.9s0-1.4,0-2.9.1-2.2.2-2.9c0-.7.2-1.4.2-2.9s0-2.2-.1-2.9c0-.6-.1-1.4-.1-2.9s0-2.2,0-2.9v-2.9c0-1.4,0-2.2,0-2.9v-2.9c0-1.4.1-2.2.2-2.9,0-.7.1-1.4.1-2.9s0-2.2-.1-2.9c0-.7-.1-1.4-.1-2.9s0-2.2,0-2.9,0-1.4,0-2.9,0-2.2.1-2.9c0-.7.1-1.4.1-2.9s-.1-2.2-.2-2.9c0-.7-.2-1.4-.2-2.9s.1-2.2.2-2.9c0-.6.1-1.4.1-2.9s0-2.2,0-2.9v-2.9c0-1.4,0-2.2-.2-2.9,0-.7-.1-1.4-.1-2.9s0-2.2,0-2.9c0-.7,0-1.4,0-2.9v-2.9c0-.7,0-1.4,0-2.9s0-2.2-.1-2.9c0-.7-.1-1.4-.1-2.9s.1-2.2.2-2.9c0-.7.2-1.4.2-2.9s.9-2.6,2.2-2.6,2.2,0,2.7,0h2.9c1.4,0,2.2,0,2.9,0,.6,0,1.4,0,2.7,0s2.2,0,2.9,0c.7,0,1.4.1,2.9.1h2.7c.7,0,1.4,0,2.9,0s2.2,0,2.9-.1c.6,0,1.4-.1,2.7-.1s2.2,0,2.9.1c.7,0,1.4.1,2.9.1s2.2,0,2.7-.1c.7,0,1.4,0,2.9,0s2.2,0,2.9.1c.6,0,1.4.1,2.9.1s2.2,1,2.2,2.3,0,2.4,0,3.2c0,.7,0,1.6,0,3.2s0,2.6,0,3.2c0,.9-.1,1.6-.1,3.2s-.9,2.6-2.1,2.6h-5.2c-1.2,0-1.9,0-2.6-.1-.6,0-1.3-.2-2.6-.2s-2,.1-2.6.2c-.6,0-1.3.1-2.6.1s-2.1,0-2.7,0h-2.4c-1.2,0-1.9,0-2.5,0s-1.3,0-2.7,0-2.4,1.1-2.4,2.5,0,2.4,0,3.1,0,1.6,0,3.2,0,2.4,0,3.1,0,1.6,0,3.1,0,2.4,0,3.1v6.2c0,.7,0,1.6,0,3.1s.9,2.2,2.2,2.2,1.9,0,2.6,0h2.6c1.3,0,1.9,0,2.6,0,.6,0,1.3,0,2.6,0s1.9,0,2.6,0,1.3,0,2.6,0,2,0,2.6-.1,1.2-.1,2.6-.1,2.5,1.3,2.5,2.6,0,2.4,0,3.2,0,1.6,0,3.2,0,2.6,0,3.2c0,.9,0,1.7,0,3.3s-1.2,2.3-2.5,2.3-1.9,0-2.6.1-1.3,0-2.6,0h-2.6c-.6,0-1.3,0-2.6,0h-2.6c-.6,0-1.2,0-2.6,0s-1.9,0-2.6,0-1.2,0-2.6,0-2.4,1.1-2.4,2.4,0,2,0,2.6c0,.6,0,1.4,0,2.7s0,2,0,2.6v2.7c0,1.3,0,2.1,0,2.7,0,.6,0,1.3,0,2.6s.1,2.1.2,2.7c0,.6.2,1.4.2,2.7s.7,2,2.2,2.2c1.3,0,2,0,2.6.1s1.3.1,2.6.1,1.9,0,2.6,0h2.6c1.3,0,2-.1,2.6-.2.6,0,1.3-.2,2.6-.2h10.4c1.2,0,2.6,1.3,2.6,2.6s-.1,2.4-.2,3.2c0,.9-.1,1.6-.1,3.2s.1,2.6.1,3.2c0,.9.2,1.7.2,3.2s-1.4,2.6-2.6,2.6h-5.7c-1.4,0-2.2,0-2.7-.1-.7,0-1.4-.1-2.9-.1h-2.9c-.6,0-1.4,0-2.7,0h-5.7c-1.4,0-2.2,0-2.7,0s-1.4,0-2.9,0-2.2,0-2.9,0c-.6,0-1.4,0-2.7,0s-2.2,0-2.9-.1c-.7,0-1.4,0-2.9,0s-2.2,0-2.9,0h0l-.5.6Z"/>
      <path class="cls-10" d="M221.1,812.8c0,.7-.2,1.4-.2,2.7v2.7c0,.7,0,1.3,0,2.7s.1,2,.2,2.7c0,.6.2,1.4.2,2.7s0,2.1,0,2.7c0,.6,0,1.4,0,2.7s0,2.1,0,2.7v2.7c0,1.3-1,2.6-2.3,2.6s-1.9-.1-2.4-.2c-.6,0-1.2-.2-2.5-.2s-1.7.1-2.4.2c-.6,0-1.1.2-2.4.2s-1.9,0-2.4,0h-2.5c-1.2,0-2.6-1.2-2.6-2.6s0-1.7,0-2.3c0-.6,0-1.1,0-2.3s0-1.7,0-2.3,0-1.1,0-2.3,0-1.4-.1-2.4c0-.9-.1-1.7-.1-2.4,0-1.6,0-2.6,0-3.4,0-.7.1-1.7.1-3.3s0-2.6,0-3.4c0-.9,0-1.6,0-3.4v-1.1c.1-1.6.1-3.5,0-5.7-.4-2.9-1.1-5.5-2.7-6.2-1.4-.4-3.6.7-4.9,1.6-2.7,1.4-3,1.6-5,2.9-.2.1-.6.3-.7.4-1.2.7-2.1,2.3-2.1,3.6s0,2,0,2.7c0,.6,0,1.3,0,2.6s0,2,0,2.7c0,.6,0,1.3,0,2.6s0,2,0,2.7v2.6c0,1.3,0,2,0,2.7v7.9c0,1.3,0,2.1,0,2.7s0,1.3,0,2.6-1.4,2.5-2.7,2.5-1.7,0-2.4,0h-2.4c-1.2,0-1.9,0-2.4,0-.6,0-1.2.1-2.5.1s-1.7,0-2.4,0c-.6,0-1.1,0-2.4,0s-2.4-1.1-2.4-2.5,0-2.2,0-2.9c0-.7,0-1.4,0-2.9s0-2.2,0-2.9,0-1.4,0-2.9,0-2.2-.1-2.9c0-.7,0-1.4,0-2.9s0-2.2,0-2.9v-11.5c0-.7,0-1.4,0-2.9v-2.9c0-.7,0-1.4,0-2.9s0-2.2,0-2.9c0-.7,0-1.4,0-2.9s0-2.2,0-2.9v-2.9c0-1.4,0-2.2,0-2.9,0-.7,0-1.4,0-2.9s-.1-2.2-.2-2.9c0-.7-.2-1.4-.2-2.9s0-2.2,0-2.9v-2.9c0-1.4,0-2.2.1-2.9,0-.7.1-1.4.1-2.9s0-2.2,0-2.9v-2.9c0-1.6-.1-2.2-.2-2.9,0-.7-.2-1.4-.2-2.9v-17.3c0-1.3,1.3-2.3,2.6-2.3s2,0,2.6-.1c.6,0,1.4-.1,2.6-.1h10.6c1.3,0,2,0,2.6.1.6,0,1.4.2,2.7.2s2,0,2.6,0,1.3,0,2.6,0c2.1,0,4,.1,5.9.4,2.1.2,3.9.6,5.7,1.1,1.9.6,3.7,1.4,5.3,2.5,1.6,1.1,2.9,2.6,4,4.3,1.1,1.4,2.2,3.2,2.9,5,.6,1.7,1,3.6,1.2,5.7.2,1.7.4,3.8.4,5.9s0,2.3,0,3v3c0,1.4,0,2.3-.1,3,0,.7-.2,1.4-.2,3v1.4c0,1.4,0,3-.1,4.5-.2,2-.6,3.9-1.2,5.8-.7,1.9-1.6,3.7-2.7,5.3-1.2,1.6-2.7,2.9-4.5,4.1,1.9,1.1,3.5,2.5,4.7,4,1.1,1.6,2,3.5,2.6,5.5.4,1.4.7,3.1.9,4.7,0,.4,0,.9,0,1.3,0,.7.2,1.3.3,2,.3,1.3.4,2.7.4,4s0,2.1-.1,2.7h0v.4ZM201.7,767.6c0-.9,0-1.7,0-3.6s0-2.6,0-3.6,0-1.7,0-3.5-.2-5.8-2.1-7.5c-1.2-.9-2.7-.9-4.2-.9s-2.5,0-3.3-.1c-.9,0-1.7-.1-3.6-.1s-2.4,1.1-2.4,2.5,0,2,0,2.6c0,.7,0,1.4,0,2.7s0,2,0,2.6c0,.6,0,1.3,0,2.6s0,2,0,2.6v2.6c0,1.3,0,2,0,2.6v7.9c0,1.3,0,2,0,2.6s0,1.3,0,2.6.6,1.7,1.7,1.2l2.5-1.2c.6-.3,1.3-.6,2.5-1.2,2.2-1.1,4.1-2.5,5.7-4,1.6-1.4,2.9-3.2,2.9-5.9v-3.6h0Z"/>
      <path class="cls-10" d="M291.6,834.9c-1.4,1.1-3.2,2.2-5.1,3-1.7.6-3.7,1.1-5.8,1.3-1.9.2-3.9.3-5.9.3s-2.1,0-2.7,0-1.3,0-2.7,0-2.1,0-2.7,0-1.4,0-2.7,0-2.2,0-2.7.1c-.6,0-1.3,0-2.7,0h-2.7c-.6,0-1.3,0-2.7,0h-2.7c-.7,0-1.4,0-2.7,0s-2.5-1.3-2.5-2.6v-5.8c0-1.4,0-2.2.1-2.9,0-.7,0-1.4,0-2.9s0-2.2,0-2.9c0-.7,0-1.4,0-2.9s0-2.2.1-2.9c0-.6,0-1.4,0-2.9s-.1-2.2-.2-2.9c0-.6-.2-1.4-.2-2.9v-2.9c0-.7,0-1.4,0-2.9s0-2.2.1-2.9c0-.7.1-1.4.1-2.9s0-2.2,0-2.9v-2.9c0-1.4-.1-2.2-.2-2.9,0-.7-.2-1.4-.2-2.9v-17.3c0-1.4,0-2.2.1-2.9s.1-1.4.1-2.9,0-2.2-.1-2.9-.1-1.4-.1-2.9v-11.6c0-1.4,0-2.2.1-2.9,0-.7.2-1.4.2-2.9s0-2.2,0-2.9,0-1.4,0-2.9,1.1-2.4,2.4-2.4,2,0,2.6,0,1.4,0,2.7,0,2,0,2.6,0,1.4,0,2.7,0,2,0,2.6.1c.7,0,1.4,0,2.7,0s2,0,2.6,0c.7,0,1.4-.1,2.7-.1s2,0,2.7,0,1.3,0,2.6,0c2.1,0,4,0,5.9.3,2.1.2,3.9.7,5.7,1.2,1.6.6,3.1,1.4,4.4,2.5.2.1.4.3.6.4,1.7,1.1,3.2,2.4,4.3,3.9s2.1,3.2,2.9,5.2c.6,1.7,1.1,3.6,1.3,5.7.1,1.1.1,2.4,0,3.7,0,.7,0,1.4,0,2.2,0,1.2,0,1.9.1,2.5s.1,1.3.1,2.6,0,2.6-.1,3.9c0,.4,0,.9-.1,1.4,0,1.1-.3,2.2-.6,3.4,0,.6-.2,1.1-.3,1.7s-.2,1.1-.3,1.7c0,1.1-.3,2.3-.6,3.4-.6,1.3-1.3,2.6-2.2,3.8l-.4.7c-.9,1.4-2.1,2.7-3.6,3.8,1.9,1.1,3.4,2.5,4.7,4,1.2,1.6,2.2,3.5,2.9,5.5.7,1.9,1.3,3.9,1.7,5.9.3,2,.4,4.1.4,6.2s0,3.2,0,4.1v4.1c0,2.1-.1,4.1-.4,5.9-.3,2.1-.7,4-1.4,5.8-.9,1.9-1.9,3.6-3,5.2-1.2,1.6-2.7,2.9-4.3,4.1h0l.2.2ZM264,753.8c0,.7-.1,1.6-.1,3.1s0,2.4.1,3.1c0,.7,0,1.6,0,3.1v3.1c0,.7,0,1.6,0,3.1v6.2c0,1.3.6,1.6,1.9.9s1.9-1.2,2.5-1.6c.6-.3,1.2-.7,2.5-1.6.6-.3,1.1-.6,1.9-.9.7-.4,1.6-.9,2.3-1.3,1.6-.9,2.7-1.9,3.6-2.9.9-1.1.9-2.5.9-3.8s0-2.7,0-3.6c0-.9,0-1.7,0-3.6s-.2-5.8-2.1-7.5c-1.2-.9-2.9-1-4.2-1-1.4,0-2.6,0-3.3-.1-.9,0-1.9,0-3.7,0s-2.4,1.1-2.4,2.5,0,2.4,0,3.1h-.1ZM281.4,811.3c0-.6,0-1,0-2.2s0-1.7-.1-2.2c0-.6-.1-1.1-.1-2.2v-.6c0-1.6,0-3.5-.3-5.7-.6-2.6-1.3-4.8-2.9-5.5-1.4-.4-3.1.4-4.2,1.1-1,.6-1.6.9-2,1.1-.6.2-1,.4-1.9.9-.7.4-1.3.7-1.7.9-.6.3-1,.6-2.2,1.2-1.1.7-2,2.3-2,3.6s0,2.2,0,2.9c0,.7-.1,1.4-.1,2.9s0,2.2.1,2.9c0,.7,0,1.4,0,2.9v2.9c0,.7,0,1.4,0,2.9s1,2.2,2.3,2.2h8.4c1.4,0,2.9-.2,4.1-1.1,2.1-1.6,2.4-4.7,2.4-6.9s0-1.6,0-2.2h0Z"/>
      <path class="cls-10" d="M380.7,730.7c1.3,0,2.2,1,1.7,2.3-.3,1.2-.6,2-.7,2.7,0,.6-.4,1.4-.7,2.7-.4,1.2-.7,2-.9,2.6-.3.6-.6,1.3-1,2.6-.3,1.3-.6,2.1-.6,2.7-.2.7-.3,1.4-.7,2.7-.4,1.3-.6,2.1-.9,2.7-.2.6-.4,1.3-.9,2.6-.4,1.3-.6,2.1-.7,2.7-.2.6-.4,1.4-.9,2.7-.4,1.2-.6,2-.7,2.6-.2.7-.4,1.4-.7,2.7-.4,1.3-.7,2-1,2.6s-.6,1.3-1,2.6c-.4,1.3-.6,2.1-.7,2.7,0,.7-.3,1.4-.7,2.7-.4,1.2-.6,2-.7,2.7,0,.6-.3,1.4-.7,2.7-.4,1.2-.7,2-.7,2.6-.2.7-.4,1.4-.9,2.7-.3,1.3-.7,2-.9,2.6-.3.6-.7,1.3-1,2.6-.4,1.3-.6,2.1-.7,2.7,0,.7-.3,1.4-.6,2.7-.4,1.3-.6,2-.9,2.6-.2.6-.4,1.4-.9,2.7s-1,3.4-1,4.6.1,2.3.2,3c0,.7.1,1.6.1,3s0,2.3-.1,3c0,.7-.2,1.6-.2,3v6c0,1.6,0,2.3.1,3,.2.7.2,1.6.2,3s0,2.3,0,3c0,.7,0,1.6,0,3s-1.1,2.3-2.4,2.3-1.7,0-2.4.1-1.1.1-2.4.1-1.9-.1-2.4-.2c-.6,0-1.2-.2-2.5-.2s-1.7.1-2.4.2-1.2.2-2.4.2-2.5-1.3-2.5-2.6,0-2.3-.1-3c0-.7,0-1.4,0-3s0-2.3,0-3c0-.7.1-1.4.1-3v-3c0-.7,0-1.4,0-3s0-2.2-.1-2.9-.1-1.6-.1-3.1.1-2.2.1-2.9c0-.7.2-1.6.2-3.1s-.4-3.4-.7-4.6c-.4-1.3-.6-2.1-.7-2.7,0-.7-.3-1.4-.7-2.7-.4-1.3-.6-2.1-.9-2.7-.3-.6-.6-1.3-.9-2.6-.3-1.3-.6-2.1-.7-2.7-.2-.6-.4-1.4-.9-2.6-.4-1.3-.6-2.1-.7-2.7-.2-.6-.4-1.4-.9-2.6-.4-1.3-.6-2.1-.7-2.7-.2-.6-.4-1.4-.9-2.7-.3-1.2-.6-2-.7-2.6-.3-.6-.6-1.4-.9-2.7-.4-1.2-.6-2-.7-2.7-.2-.6-.3-1.4-.7-2.7s-.6-2-.7-2.7c0-.6-.3-1.4-.7-2.7-.4-1.2-.6-2-.9-2.6-.2-.6-.6-1.3-.9-2.6-.3-1.3-.6-2.1-.7-2.7-.2-.6-.4-1.4-.7-2.7-.4-1.3-.6-2.1-.7-2.7-.2-.6-.4-1.4-.7-2.7-.3-1.3-.6-2-.9-2.6s-.4-1.4-.9-2.7c-.3-1.3-.6-2.1-.7-2.7-.2-.6-.4-1.4-.7-2.7-.3-1.3.4-2.5,1.7-2.5h2.6c.6,0,1.3,0,2.6,0h2.6c.6,0,1.3,0,2.6,0s1.9,0,2.6,0,1.3,0,2.6,0,2.6,1.1,3,2.3c.3,1.4.6,2.3.6,3,.2.7.4,1.4.7,2.9.4,1.4.6,2.3.9,2.9.2.7.4,1.4.9,2.9.3,1.4.6,2.3.6,3,.2.7.4,1.4.7,2.9.4,1.4.7,2.2,1,2.9.3.6.6,1.4,1,2.9.3,1.4.6,2.3.7,3,0,.7.4,1.4.7,2.9.4,1.4.6,2.3.6,3s.2,1.4.6,3c.4,1.4.6,2.2.7,2.9,0,.7.3,1.4.7,2.9.4,1.2.9,1.2,1.3,0,.3-1.4.6-2.3.7-3,.2-.6.4-1.4.7-2.9.4-1.4.6-2.2.9-2.9s.4-1.4.7-2.9c.4-1.4.6-2.3.9-3,.2-.6.4-1.4.7-2.9.4-1.4.7-2.2.9-2.9.3-.7.6-1.4,1-2.9s.6-2.3.6-3,.3-1.4.7-2.9c.3-1.4.6-2.3.7-3,.2-.6.4-1.4.9-2.9s.6-2.2.7-2.9c.2-.7.4-1.4.7-2.9.4-1.3,2-2.2,3.2-2.2h3.5c.9,0,1.7,0,3.6,0h7-.2Z"/>
    </g>
    <g>
      <path class="cls-1" d="M47.1,867.2c1.7.6,3.5,1.4,4.9,2.3,1.6.9,3.1,2,4.4,3.2.9,1,1.7,2.2,2.3,3.4l.7,1.1c0,.1.2.3.3.6.9,1.3,1.6,2.7,2.2,4.2.6,1.6,1.1,3.4,1.4,5.2.3,1.7.4,3.6.4,5.4s-.1,1.9-.2,2.5c0,.6-.1,1.2-.1,2.5s0,1.9.1,2.5.1,1.2.1,2.5-1.3,2.5-2.6,2.5-2.6-.1-3.4-.1c-.9,0-1.6-.1-3.4-.1s-2.6,0-3.4.1c-.9,0-1.6.2-3.4.2s-2.2-1.2-2.2-2.6v-2.7c0-.7,0-1.4,0-2.7s-.1-2.1-.2-2.7c0-.7-.2-1.3-.2-2.7,0-2.6-.7-4.6-2-6.1-1.4-1.4-3.5-2.2-6.1-2.2s-4.5.9-5.9,2.5c-1.4,1.3-2.6,3.3-2.6,5.9s.1,2.2.2,2.9c0,.7.2,1.6.2,2.9s0,2.2,0,2.9v2.9c0,1.4,0,2.2,0,2.9,0,.7,0,1.4,0,2.9s0,2.2,0,2.9c0,.7-.1,1.4-.1,2.9v2.9c0,.7,0,1.4,0,2.9s0,2.2.1,2.9.1,1.4.1,2.9,0,2.2-.1,2.9c0,.7,0,1.4,0,2.9s0,2.2,0,2.9c0,.7,0,1.4,0,2.9s0,2.2-.1,2.9c0,.7-.1,1.4-.1,2.9v2.9c0,.7,0,1.4,0,2.9,0,2.6.7,4.6,2.3,6,1.4,1.6,3.6,2.4,6.1,2.4s4.6-1.1,6-2.5c1.4-1.3,2.1-3.3,2.1-5.9s.1-2.6.2-3.5c0-.9.1-1.7.1-3.4s0-2.7,0-3.6,0-1.7,0-3.3,1-2.4,2.3-2.4,2.6,0,3.4,0,1.7,0,3.4,0,2.6,0,3.4,0,1.7,0,3.4,0,2.5,1.1,2.5,2.4v3.2c0,.7,0,1.6,0,3.2v6.4c0,1.9,0,3.6-.2,5.4-.3,1.7-.7,3.4-1.4,4.9,0,.1,0,.3,0,.4-.7,1.7-1.4,3.4-2.4,4.9,0,.1-.2.3-.3.4-.7,1.4-1.7,2.9-2.9,4-1.3,1.2-2.7,2.3-4.3,3.2-1.6.9-3.2,1.6-4.9,2.2-1.6.6-3.4,1.1-5.2,1.4-1.7.1-3.6.2-5.4.2h-1.3c-1.4,0-2.9,0-4.2-.1-1.9-.3-3.6-.7-5.2-1.3-1.7-.6-3.5-1.4-4.9-2.2-1.6-1-3-2.2-4.2-3.5s-2.3-2.7-3.3-4.2c-.9-1.4-1.4-3.1-2-4.9,0,0,0-.1,0-.1-.6-1.6-1-3.3-1.3-5.2-.2-1.4-.3-2.9-.2-4.5v-.9c0-1.4-.1-2.1-.2-2.7,0-.6-.2-1.4-.2-2.7s0-2.2,0-2.7v-2.7c0-1.3,0-2.1.1-2.7,0-.7.1-1.4.1-2.7s0-2.1,0-2.7v-2.7c0-1.4-.1-2.2-.2-2.7,0-.7-.2-1.3-.2-2.7v-16.5c0-1.3,0-2.1.1-2.7,0-.6.1-1.4.1-2.7s0-2.2-.1-2.7c0-.6-.1-1.3-.1-2.7s.1-3.6.4-5.4c.2-1.9.6-3.7,1.1-5.3.6-1.3,1.1-2.6,2-3.7.2-.4.4-.7.6-1.1.9-1.6,2-2.9,3.2-4.2,1.3-1.3,2.7-2.4,4.2-3.4,1.4-.9,3.1-1.7,4.9-2.4,1.6-.6,3.4-1.1,5.2-1.4,1.3-.1,2.6-.2,4-.1h2.9c1.4,0,2.7,0,4,.1,1.9.3,3.6.7,5.2,1.4h0l.2-.9Z"/>
      <path class="cls-8" d="M115,974.9c-1.3,0-2.6-.1-3.7-.6-.6,0-1.1-.2-1.7-.3-.4,0-.7,0-1.1-.1-1.4-.1-2.9-.4-4.2-.9-1.7-.6-3.5-1.2-5-2.1-1.6-1-3.1-2.1-4.4-3.3-1-1-1.7-2.2-2.5-3.5-.2-.4-.4-.7-.6-1.1-.2-.2-.4-.6-.6-.7-.9-1.2-1.6-2.6-2.2-3.9-.6-1.7-.9-3.5-1.1-5.4-.1-1.7-.2-3.5-.2-5.4s0-2.1,0-2.7v-2.7c0-1.4,0-2.2,0-2.7s0-1.3,0-2.7,0-2.1,0-2.7,0-1.4,0-2.7,0-2.1,0-2.7v-5.5c0-.7,0-1.3,0-2.7v-5.5c0-1.4,0-2.1,0-2.7s0-1.4,0-2.7,0-2.2.1-2.7c0-.7,0-1.3,0-2.7s0-2.1,0-2.7,0-1.4,0-2.7,0-2.2-.1-2.7c0-.6-.1-1.3-.1-2.7s.1-3.7.6-5.4c.3-1.9.7-3.7,1.4-5.3.6-1.7,1.4-3.4,2.2-4.9,1-1.6,2.2-2.9,3.6-4.2,0,0,0,0,0,0,1.2-1.3,2.6-2.4,4.1-3.4,1.6-.9,3.2-1.7,5-2.2,1.7-.6,3.5-1,5.3-1.3,1.7-.1,3.6-.2,5.5-.2s3.6.1,5.4.4c1.7.3,3.3.7,4.9,1.3,0,0,.2,0,.4.1,1.7.6,3.5,1.3,5,2.2,1.6,1,2.9,2.1,4.2,3.4.3.3.6.6,1,.9,1,.9,1.9,1.9,2.7,3,.9,1.6,1.7,3.2,2.3,5,.4,1.2.6,2.6.7,3.9l.2,1.4c.2,1.7.3,3.5.3,5.4s.1,2.1.2,2.7c0,.6.2,1.3.2,2.7v16.5c0,1.3,0,2.1-.1,2.7,0,.7-.1,1.3-.1,2.7s0,2.1.1,2.7c0,.6.1,1.4.1,2.7v2.7c0,.6,0,1.3,0,2.7s0,2.1,0,2.7v2.7c0,1.3,0,2.1-.1,2.7,0,.6-.2,1.4-.2,2.7s0,2.2,0,2.7,0,1.3,0,2.7-.1,3.7-.4,5.4c-.2,1.9-.7,3.7-1.2,5.3-.6,1.7-1.3,3.5-2.2,5-.9,1.4-2,2.7-3.3,3.9,0,0-.2.1-.3.2l-.2.2c-1.1,1.3-2.5,2.4-3.9,3.3-1.6.9-3.2,1.6-5,2.2-1.6.6-3.4,1-5.3,1.2-1.7.4-3.6.6-5.4.6h0ZM115,956.9c2.6,0,4.6-.7,5.9-2.2,1.6-1.4,2.3-3.4,2.3-6s0-2.2-.1-2.9c0-.7,0-1.4,0-2.9v-2.9c0-.6,0-1.4,0-2.9v-2.9c0-.6,0-1.4,0-2.9s0-2.2,0-2.9,0-1.4,0-2.9v-5.7c0-1.3,0-2.2.1-2.9,0-.6,0-1.4,0-2.9s0-2.2,0-2.7,0-1.6,0-2.9,0-2.2,0-2.9c0-.7.1-1.6.1-2.9s-.1-2.2-.2-2.9c0-.7-.2-1.6-.2-2.9v-2.9c0-.7,0-1.4,0-2.9,0-2.6-.4-4.7-1.9-6.2-1.4-1.6-3.6-2.3-6.2-2.3s-4.5,1.1-5.9,2.6c-1.4,1.4-2.4,3.4-2.4,5.9v2.9c0,.7,0,1.6,0,2.9s0,2.2,0,2.9c0,.7,0,1.4,0,2.9s0,2.2,0,2.9c0,.7,0,1.4,0,2.9v2.9c0,.7,0,1.4,0,2.9v2.9c0,.7,0,1.4,0,2.9v5.7c0,1.4,0,2.2,0,2.9v2.9c0,1.4,0,2.2,0,2.9,0,.7,0,1.4,0,2.9s0,2.2,0,2.9,0,1.4,0,2.9,0,2.2.1,2.9c0,.7.1,1.4.1,2.9,0,2.6.7,4.6,2,6,1.4,1.4,3.4,2.2,6,2.2h.2Z"/>
      <path class="cls-7" d="M172.4,917.3c0-.7.1-1.4.4-2.9.2-1.4.3-2.2.6-2.9,0-.7.3-1.4.6-2.9.2-1.3.2-2.2.2-2.9s0-1.4.2-2.9c.2-1.3.2-2.2.4-2.9,0-.7.1-1.4.4-2.9.2-1.4.4-2.2.6-2.9.2-.7.4-1.6.6-2.9.2-1.4.3-2.2.6-2.9,0-.7.2-1.6.4-2.9.2-1.4.2-2.3.2-2.9,0-.7,0-1.6.1-3,.2-1.3.4-2.2.4-2.9,0-.7.1-1.4.4-2.9.2-1.4.3-2.2.4-2.9.2-.6.2-1.4.4-2.9.3-1.3,1.7-2.6,3-2.6s2.4,0,3.1.1c.7,0,1.6.1,3.1.1s2.4,0,3.1-.1c.7,0,1.6-.1,3.1-.1h12.3c1.3,0,2.4,1.2,2.6,2.6.2,1.3.3,2.2.6,2.9,0,.7.2,1.6.4,2.9.2,1.4.4,2.2.4,2.9,0,.7.2,1.4.4,2.9.2,1.3.4,2.2.4,2.9.2.7.3,1.4.6,2.9.2,1.3.3,2.2.6,2.9,0,.7.3,1.6.6,2.9.2,1.4.2,2.2.3,2.9,0,.7,0,1.4.3,2.9.2,1.4.4,2.2.6,2.9.2.7.3,1.4.6,2.9.2,1.4.3,2.2.3,2.9,0,.7.1,1.4.4,2.9.3,1.6.4,2.3.4,3,0,.7.2,1.4.4,2.7.2,1.4.4,2.2.4,2.9.2.7.3,1.4.6,2.9s.2,2.2.2,2.9,0,1.4.2,2.9c.2,1.4.4,2.2.6,2.9.2.6.4,1.4.6,2.9s.4,2.2.4,2.9c.2.7.3,1.4.6,2.9.2,1.4.4,2.2.4,2.9,0,.7.2,1.4.4,2.9.2,1.4.2,2.2.2,2.9s0,1.4.2,2.9c.3,1.4.4,2.2.6,2.9.2.7.4,1.4.6,2.9.2,1.3.3,2.2.4,2.9s.1,1.4.4,2.9c.2,1.4.2,2.2.3,2.9,0,.7,0,1.4.2,2.9.2,1.4.4,2.2.7,2.9.2.7.4,1.6.6,2.9s-.9,2.2-2.2,2.2-1.9,0-2.5,0h-2.5c-1.1,0-1.9,0-2.4.2-.6,0-1.2.2-2.5.2s-1.9,0-2.5-.1c-.6,0-1.2,0-2.4,0s-2.4-1-2.7-2.3c-.2-1.6-.4-2.4-.6-3.1s-.4-1.6-.6-3c-.2-1.6-.2-2.5-.2-3.2s0-1.6-.2-3.1c-.2-1.6-.4-2.3-.7-3-.3-.7-.4-1.6-.7-3.1-.2-1.6-.3-2.4-.3-3.1,0-.7,0-1.6-.4-3.2-.2-1.2-1.3-1.7-2.5-1.2-1.1.7-1.7,1-2.4,1.3-.6.2-1.1.6-2.3,1.2-1.1.7-1.7,1.1-2.3,1.4-.6.3-1.1.7-2.2,1.4-1.1.6-1.7,1-2.3,1.4-.6.3-1.1.7-2.3,1.4-1.1.6-2.1,2.2-2.3,3.5-.3,1.7-.4,2.7-.6,3.6,0,.9-.2,1.7-.6,3.6-.2,1.7-.4,2.7-.4,3.6,0,.9-.2,1.7-.4,3.6-.3,1.3-1.7,2.4-3,2.4s-2.5,0-3.3,0h-3.3c-1.6,0-2.5,0-3.3,0-.7,0-1.6.1-3.2.1s-2.2-1.2-2.2-2.6c.2-1.4.3-2.2.6-2.9,0-.7.2-1.6.4-2.9.2-1.4.3-2.2.4-2.9,0-.7.1-1.4.4-2.9.2-1.4.4-2.2.4-2.9.2-.7.3-1.4.6-2.9.2-1.3.3-2.2.3-2.9,0-.7,0-1.6.3-2.9.2-1.4.3-2.2.6-2.9,0-.7.2-1.6.4-2.9.2-1.4.4-2.2.4-2.9,0-.7.1-1.4.4-2.9.2-1.3.4-2.2.4-2.9.2-.7.3-1.6.6-2.9.2-1.4.4-2.2.4-2.9s.2-1.4.4-2.9c.2-1.3.3-2.2.6-2.9,0-.7.3-1.6.6-2.9.2-1.4.3-2.2.4-2.9h.3ZM189.6,932.4c.9-.6,1.6-.9,1.9-1.1.6-.2,1.1-.4,2-1.1.9-.6,1.3-.9,1.9-1.1.4-.4.9-.7,1.9-1.2,1.1-.7,1.9-2.1,1.7-3.4-.2-1.4-.3-2.2-.4-2.9s-.2-1.4-.4-2.9c-.2-1.4-.4-2.3-.4-2.9-.2-.7-.3-1.4-.6-2.9s-.4-2.3-.4-3c0-.7-.1-1.4-.4-2.9-.2-1.4-.3-2.2-.6-2.9-.2-.7-.3-1.6-.6-3s-.3-2.2-.3-2.9c0-.7,0-1.6-.4-3-.2-1.3-.6-1.3-.7,0-.2,1.6-.4,2.3-.6,3-.2.7-.3,1.6-.6,3-.2,1.6-.3,2.2-.4,3.1,0,.7-.1,1.6-.4,3-.2,1.4-.4,2.3-.4,3,0,.7-.1,1.6-.4,3-.3,1.6-.4,2.3-.4,3,0,.9-.2,1.6-.4,3.1-.2,1.4-.4,2.3-.4,3s-.2,1.6-.4,3c-.2,1.6-.4,2.3-.4,3,0,.9-.1,1.6-.4,3.1-.2,1.3.2,1.7,1.4,1.1h-.2Z"/>
      <path class="cls-5" d="M285.3,867.2c1.7.6,3.5,1.4,4.9,2.3,1.6.9,3.1,2,4.4,3.2.9,1,1.7,2.2,2.3,3.4l.7,1.1c0,.1.2.3.3.6.9,1.3,1.6,2.7,2.2,4.2.6,1.6,1.1,3.4,1.4,5.2.3,1.7.4,3.6.4,5.4s-.1,1.9-.2,2.5c0,.6-.1,1.2-.1,2.5s0,1.9.1,2.5.1,1.2.1,2.5-1.3,2.5-2.6,2.5-2.6-.1-3.4-.1c-.9,0-1.6-.1-3.4-.1s-2.6,0-3.4.1c-.9,0-1.6.2-3.4.2s-2.2-1.2-2.2-2.6v-2.7c0-.7,0-1.4,0-2.7s-.1-2.1-.2-2.7c0-.7-.2-1.3-.2-2.7,0-2.6-.7-4.6-2-6.1-1.4-1.4-3.5-2.2-6.1-2.2s-4.5.9-5.9,2.5c-1.4,1.3-2.6,3.3-2.6,5.9s.1,2.2.2,2.9c0,.7.2,1.6.2,2.9s0,2.2,0,2.9v2.9c0,1.4,0,2.2,0,2.9,0,.7,0,1.4,0,2.9s0,2.2,0,2.9c0,.7-.1,1.4-.1,2.9v2.9c0,.7,0,1.4,0,2.9s0,2.2.1,2.9c0,.7.1,1.4.1,2.9s0,2.2-.1,2.9c0,.7,0,1.4,0,2.9s0,2.2,0,2.9c0,.7,0,1.4,0,2.9s0,2.2-.1,2.9c0,.7-.1,1.4-.1,2.9v2.9c0,.7,0,1.4,0,2.9,0,2.6.7,4.6,2.3,6,1.4,1.6,3.6,2.4,6.1,2.4s4.6-1.1,6-2.5c1.4-1.3,2.1-3.3,2.1-5.9s.1-2.6.2-3.5c0-.9.1-1.7.1-3.4s0-2.7,0-3.6,0-1.7,0-3.3,1-2.4,2.3-2.4,2.6,0,3.4,0,1.7,0,3.4,0,2.6,0,3.4,0,1.7,0,3.4,0,2.5,1.1,2.5,2.4v3.2c0,.7,0,1.6,0,3.2v6.4c0,1.9,0,3.6-.2,5.4-.3,1.7-.7,3.4-1.4,4.9,0,.1,0,.3,0,.4-.7,1.7-1.4,3.4-2.4,4.9,0,.1-.2.3-.3.4-.7,1.4-1.7,2.9-2.9,4-1.3,1.2-2.7,2.3-4.3,3.2-1.6.9-3.2,1.6-4.9,2.2-1.6.6-3.4,1.1-5.2,1.4-1.7.1-3.6.2-5.4.2h-1.3c-1.4,0-2.9,0-4.2-.1-1.9-.3-3.6-.7-5.2-1.3-1.7-.6-3.5-1.4-4.9-2.2-1.6-1-3-2.2-4.2-3.5s-2.3-2.7-3.3-4.2c-.9-1.4-1.4-3.1-2-4.9,0,0,0-.1,0-.1-.6-1.6-1-3.3-1.3-5.2-.2-1.4-.3-2.9-.2-4.5v-.9c0-1.4-.1-2.1-.2-2.7,0-.6-.2-1.4-.2-2.7s0-2.2,0-2.7v-2.7c0-1.3,0-2.1.1-2.7,0-.7.1-1.4.1-2.7s0-2.1,0-2.7v-2.7c0-1.4-.1-2.2-.2-2.7,0-.7-.2-1.3-.2-2.7v-16.5c0-1.3,0-2.1.1-2.7,0-.6.1-1.4.1-2.7s0-2.2-.1-2.7c0-.6-.1-1.3-.1-2.7s.1-3.6.4-5.4c.2-1.9.6-3.7,1.1-5.3.6-1.3,1.1-2.6,2-3.7.2-.4.4-.7.6-1.1.9-1.6,2-2.9,3.2-4.2,1.3-1.3,2.7-2.4,4.2-3.4,1.4-.9,3.1-1.7,4.9-2.4,1.6-.6,3.4-1.1,5.2-1.4,1.3-.1,2.6-.2,4-.1h2.9c1.4,0,2.7,0,4,.1,1.9.3,3.6.7,5.2,1.4h0l.2-.9Z"/>
      <path class="cls-6" d="M377.4,974.6h-2.5c-1.2,0-1.9,0-2.5,0-.6,0-1.2,0-2.5,0s-1.9,0-2.5,0h-2.4c-1.3,0-2.4-1.2-2.4-2.6v-2.7c0-.6,0-1.4,0-2.7s0-2.1,0-2.7c0-.6-.1-1.4-.1-2.7s.1-2.1.2-2.7c.2-.6.3-1.4.3-2.7s0-2.1,0-2.7,0-1.4,0-2.7,0-2.1-.1-2.7c0-.7-.1-1.3-.1-2.7s0-2,0-2.7v-2.7c0-1.3,0-2.1.1-2.7s.2-1.4.2-2.7-1.1-1.9-2.4-1.3c-1.2.6-1.7,1.1-2.3,1.4-.6.3-1.1.7-2.3,1.4-1,.6-1.6,1-2.2,1.4-.6.4-1.1.7-2.3,1.4-1.1.6-1.7.9-2.4,1.1-.6.3-1.2.6-2.4,1.2-1.2.7-2.1,2.4-2.1,3.7s0,2.1,0,2.7c0,.7,0,1.4,0,2.7s0,2.1,0,2.7c0,.6,0,1.4,0,2.7s0,2.2,0,2.7v2.7c0,1.3,0,2.1,0,2.7v8.2c0,1.3-1.2,2.7-2.6,2.7s-1.7,0-2.4-.1c-.6,0-1.1,0-2.4,0s-1.9,0-2.4,0h-2.5c-1.2,0-1.7,0-2.4,0-.6,0-1.2.1-2.4.1s-2.5-1.3-2.5-2.6v-2.9c0-.7,0-1.4,0-2.9s0-2.2,0-2.9,0-1.4,0-2.9,0-2.2,0-2.9,0-1.4,0-2.9,0-2.2-.1-2.9c0-.6,0-1.4,0-2.9s0-2.2,0-2.9v-5.8c0-.7,0-1.4,0-2.9s0-2.2,0-2.9c0-.7,0-1.4,0-2.9v-5.9c0-1.4,0-2.2.1-2.9,0-.7,0-1.4,0-2.9s0-2.2,0-2.9v-2.9c0-1.4,0-2.2,0-2.9,0-.7,0-1.4,0-2.9s-.1-2.2-.2-2.9c0-.6-.2-1.4-.2-2.9v-2.9c0-.7,0-1.4,0-2.9s0-2.2.1-2.9.1-1.4.1-2.9,0-2.2,0-2.9v-2.9c0-1.4-.1-2.2-.2-2.9,0-.7-.2-1.4-.2-2.9v-11.5c0-1.3,1.3-2.6,2.6-2.6s1.7,0,2.4.1,1.1.1,2.4.1,1.9,0,2.4-.1c.6,0,1.2-.1,2.5-.1h4.8c1.3,0,2.6,1.3,2.6,2.6s0,2.1-.1,2.7c0,.6-.2,1.3-.2,2.7s0,2.2,0,2.7,0,1.4,0,2.9v5.5c0,1.4,0,2.2,0,2.7s0,1.4,0,2.7,0,2.2,0,2.9,0,1.3,0,2.7,0,2.2-.1,2.7c0,.7,0,1.4,0,2.7s0,2.2,0,2.9c0,.6.1,1.3.1,2.7s0,2.2,0,2.7,0,1.4,0,2.7v5.6c0,1.3.6,1.7,1.9,1,1.1-.7,1.7-.9,2.4-1.1.6-.3,1.2-.6,2.4-1.1,1.1-.7,1.7-1.2,2.3-1.4.6-.4,1.1-.9,2.2-1.4,1.1-.7,1.7-1.1,2.3-1.4.6-.4,1.1-.7,2.2-1.4,1.2-.7,1.9-2.2,1.9-3.4s.1-2.2.2-2.9c0-.7.1-1.4.1-2.9s0-2.2-.1-2.9-.1-1.4-.1-2.9,0-2.2,0-2.9c0-.7,0-1.4,0-2.9s0-2.2.1-2.9c0-.6.1-1.4.1-2.9s-.1-2.2-.2-2.9c0-.6-.2-1.4-.2-2.9s.1-2.2.2-2.7c0-.7.1-1.6.1-2.9s0-2.2,0-2.9v-2.9c0-1.3.9-2.6,2.2-2.6s1.9,0,2.4,0c.6,0,1.2,0,2.5,0h2.5c.6,0,1.2,0,2.5,0s1.9,0,2.5-.1c.6,0,1.2-.1,2.5-.1s2.1,1.3,2.1,2.6.1,2.2.2,2.9.2,1.4.2,2.9,0,2.2,0,2.9v2.9c0,1.4,0,2.2,0,2.9,0,.7,0,1.4,0,2.9s0,2.2,0,2.9c0,.6,0,1.4,0,2.9s0,2.2,0,2.9,0,1.4,0,2.9.1,2.2.1,2.9c0,.7.1,1.4.1,2.9s0,2.2-.1,2.9c0,.7,0,1.4,0,2.9s0,2.2,0,2.9c0,.7,0,1.4,0,2.9s0,2.2-.1,2.9c0,.7,0,1.4,0,2.9s0,2.2,0,2.9,0,1.4,0,2.9,0,2.2,0,2.9c0,.7,0,1.4,0,2.9s0,2.2,0,2.9c0,.6-.1,1.4-.1,2.9s.1,2.2.2,2.9c0,.7.1,1.4.1,2.9v5.9c0,1.4,0,2.2-.1,2.9s-.1,1.4-.1,2.9,0,2.2.1,2.9c0,.7.1,1.4.1,2.9s0,2.2,0,2.9v2.9c0,1.4,0,2.2,0,2.9v2.9c0,1.3-1.1,2.3-2.3,2.3h-2.5v.4Z"/>
    </g>
  </g>
</svg>