<?xml version="1.0" encoding="UTF-8"?>
<svg id="Capa_1" data-name="Capa 1" xmlns="http://www.w3.org/2000/svg" xmlns:xlink="http://www.w3.org/1999/xlink" version="1.1" viewBox="0 0 1084.9 688.6">
  <defs>
    <style>
      .cls-1 {
        fill: url(#Degradado_sin_nombre_5);
      }

      .cls-1, .cls-2, .cls-3, .cls-4, .cls-5, .cls-6, .cls-7, .cls-8, .cls-9, .cls-10 {
        stroke-width: 0px;
      }

      .cls-2 {
        fill: url(#Degradado_sin_nombre_4);
      }

      .cls-3 {
        fill: url(#Degradado_sin_nombre_3);
      }

      .cls-4 {
        fill: url(#Degradado_sin_nombre_2);
      }

      .cls-5 {
        fill: url(#Degradado_sin_nombre_8);
      }

      .cls-6 {
        fill: url(#Degradado_sin_nombre_9);
      }

      .cls-7 {
        fill: url(#Degradado_sin_nombre_7);
      }

      .cls-8 {
        fill: url(#Degradado_sin_nombre_6);
      }

      .cls-9 {
        fill: url(#Degradado_sin_nombre);
      }

      .cls-10 {
        fill: #fff;
      }
    </style>
    <linearGradient id="Degradado_sin_nombre" data-name="Degradado sin nombre" x1="155.2" y1="1029.2" x2="227" y2="1029.2" gradientTransform="translate(0 1081.7) scale(1 -1)" gradientUnits="userSpaceOnUse">
      <stop offset="0" stop-color="#efa22b"/>
      <stop offset=".1" stop-color="#f7db51"/>
      <stop offset=".3" stop-color="#ffc739"/>
      <stop offset=".5" stop-color="#fff87b"/>
      <stop offset=".6" stop-color="#ffc839"/>
      <stop offset=".7" stop-color="#ffce39"/>
      <stop offset=".8" stop-color="#ffef7b"/>
      <stop offset="1" stop-color="#e09f26"/>
    </linearGradient>
    <linearGradient id="Degradado_sin_nombre_2" data-name="Degradado sin nombre 2" x1="26.2" y1="968.4" x2="356" y2="968.4" gradientTransform="translate(0 1081.7) scale(1 -1)" gradientUnits="userSpaceOnUse">
      <stop offset="0" stop-color="#efa22b"/>
      <stop offset=".1" stop-color="#f7db51"/>
      <stop offset=".3" stop-color="#ffc739"/>
      <stop offset=".5" stop-color="#fff87b"/>
      <stop offset=".6" stop-color="#ffc839"/>
      <stop offset=".7" stop-color="#ffce39"/>
      <stop offset=".8" stop-color="#ffef7b"/>
      <stop offset="1" stop-color="#e09f26"/>
    </linearGradient>
    <linearGradient id="Degradado_sin_nombre_3" data-name="Degradado sin nombre 3" x1="26.2" y1="921.1" x2="356" y2="921.1" gradientTransform="translate(0 1081.7) scale(1 -1)" gradientUnits="userSpaceOnUse">
      <stop offset="0" stop-color="#efa22b"/>
      <stop offset=".1" stop-color="#f7db51"/>
      <stop offset=".3" stop-color="#ffc739"/>
      <stop offset=".5" stop-color="#fff87b"/>
      <stop offset=".6" stop-color="#ffc839"/>
      <stop offset=".7" stop-color="#ffce39"/>
      <stop offset=".8" stop-color="#ffef7b"/>
      <stop offset="1" stop-color="#e09f26"/>
    </linearGradient>
    <linearGradient id="Degradado_sin_nombre_4" data-name="Degradado sin nombre 4" x1="26.2" y1="443" x2="356" y2="443" gradientTransform="translate(0 1081.7) scale(1 -1)" gradientUnits="userSpaceOnUse">
      <stop offset="0" stop-color="#efa22b"/>
      <stop offset=".1" stop-color="#f7db51"/>
      <stop offset=".3" stop-color="#ffc739"/>
      <stop offset=".5" stop-color="#fff87b"/>
      <stop offset=".6" stop-color="#ffc839"/>
      <stop offset=".7" stop-color="#ffce39"/>
      <stop offset=".8" stop-color="#ffef7b"/>
      <stop offset="1" stop-color="#e09f26"/>
    </linearGradient>
    <linearGradient id="Degradado_sin_nombre_5" data-name="Degradado sin nombre 5" x1="825.4" y1="405.2" x2="577.3" y2="551.8" gradientTransform="translate(0 1081.7) scale(1 -1)" gradientUnits="userSpaceOnUse">
      <stop offset="0" stop-color="#efa22b"/>
      <stop offset=".1" stop-color="#f7db51"/>
      <stop offset=".3" stop-color="#ffc739"/>
      <stop offset=".5" stop-color="#fff87b"/>
      <stop offset=".6" stop-color="#ffc839"/>
      <stop offset=".7" stop-color="#ffce39"/>
      <stop offset=".8" stop-color="#ffef7b"/>
      <stop offset="1" stop-color="#e09f26"/>
    </linearGradient>
    <linearGradient id="Degradado_sin_nombre_6" data-name="Degradado sin nombre 6" x1="857.9" y1="460.1" x2="609.8" y2="606.8" gradientTransform="translate(0 1081.7) scale(1 -1)" gradientUnits="userSpaceOnUse">
      <stop offset="0" stop-color="#efa22b"/>
      <stop offset=".1" stop-color="#f7db51"/>
      <stop offset=".3" stop-color="#ffc739"/>
      <stop offset=".5" stop-color="#fff87b"/>
      <stop offset=".6" stop-color="#ffc839"/>
      <stop offset=".7" stop-color="#ffce39"/>
      <stop offset=".8" stop-color="#ffef7b"/>
      <stop offset="1" stop-color="#e09f26"/>
    </linearGradient>
    <linearGradient id="Degradado_sin_nombre_7" data-name="Degradado sin nombre 7" x1="887.8" y1="510.7" x2="639.7" y2="657.3" gradientTransform="translate(0 1081.7) scale(1 -1)" gradientUnits="userSpaceOnUse">
      <stop offset="0" stop-color="#efa22b"/>
      <stop offset=".1" stop-color="#f7db51"/>
      <stop offset=".3" stop-color="#ffc739"/>
      <stop offset=".5" stop-color="#fff87b"/>
      <stop offset=".6" stop-color="#ffc839"/>
      <stop offset=".7" stop-color="#ffce39"/>
      <stop offset=".8" stop-color="#ffef7b"/>
      <stop offset="1" stop-color="#e09f26"/>
    </linearGradient>
    <linearGradient id="Degradado_sin_nombre_8" data-name="Degradado sin nombre 8" x1="924.3" y1="572.5" x2="676.2" y2="719.1" gradientTransform="translate(0 1081.7) scale(1 -1)" gradientUnits="userSpaceOnUse">
      <stop offset="0" stop-color="#efa22b"/>
      <stop offset=".1" stop-color="#f7db51"/>
      <stop offset=".3" stop-color="#ffc739"/>
      <stop offset=".5" stop-color="#fff87b"/>
      <stop offset=".6" stop-color="#ffc839"/>
      <stop offset=".7" stop-color="#ffce39"/>
      <stop offset=".8" stop-color="#ffef7b"/>
      <stop offset="1" stop-color="#e09f26"/>
    </linearGradient>
    <linearGradient id="Degradado_sin_nombre_9" data-name="Degradado sin nombre 9" x1="957.3" y1="628.2" x2="709.2" y2="774.9" gradientTransform="translate(0 1081.7) scale(1 -1)" gradientUnits="userSpaceOnUse">
      <stop offset="0" stop-color="#efa22b"/>
      <stop offset=".1" stop-color="#f7db51"/>
      <stop offset=".3" stop-color="#ffc739"/>
      <stop offset=".5" stop-color="#fff87b"/>
      <stop offset=".6" stop-color="#ffc839"/>
      <stop offset=".7" stop-color="#ffce39"/>
      <stop offset=".8" stop-color="#ffef7b"/>
      <stop offset="1" stop-color="#e09f26"/>
    </linearGradient>
  </defs>
  <g>
    <path class="cls-9" d="M192.3,19.3l7.6,23.4c.2.5.7.9,1.2.9h24.6c1.2,0,1.8,1.6.8,2.3l-19.9,14.4c-.5.3-.6.9-.5,1.4l7.6,23.4c.4,1.2-1,2.2-2,1.4l-19.9-14.4c-.5-.3-1-.3-1.5,0l-19.9,14.4c-1,.7-2.3-.2-2-1.4l7.6-23.4c.2-.5,0-1.1-.5-1.4l-19.9-14.4c-1-.7-.5-2.3.8-2.3h24.6c.5,0,1-.4,1.2-.9l7.6-23.4c.4-1.2,2-1.2,2.4,0h0Z"/>
    <path class="cls-4" d="M26.2,81.9l164.4,43.8,165.4-43.8v12.1c0,4.1-2.8,7.8-6.8,8.8l-158.6,42L33,102.8c-4-1.1-6.8-4.7-6.8-8.8v-12.1h0Z"/>
    <path class="cls-3" d="M26.2,129.2l164.4,43.8,165.4-43.8v12.1c0,4.1-2.8,7.8-6.8,8.8l-158.6,42-157.6-42c-4-1.1-6.8-4.7-6.8-8.8v-12.1h0Z"/>
    <path class="cls-2" d="M26.2,607.3l164.4,43.8,165.4-43.8v10.7c0,5-3.4,9.3-8.2,10.6l-157.2,41.6-156.2-41.6c-4.8-1.3-8.2-5.6-8.2-10.6v-10.7h0Z"/>
    <path class="cls-10" d="M343.2,183.1c7.6-2,12.8,2.1,12.8,9.9v49.8h0v65.8c0,8.9-8.6,20-17.1,22.1l-32,7.9c-7.3,1.8-12.2-2.2-12.2-9.7v-60c0-5.9-4-9-9.7-7.5l-15.7,4.1c-3.3.9-6.6,5.1-6.6,8.6v259.5c0,5.1,3.4,7.8,8.4,6.5l13.5-3.5c5-1.3,10-7.8,10-13v-129.6c0-8.7,8.2-19.4,16.6-21.7l31.3-8.5c8.1-2.2,13.7,2.1,13.7,10.5v143.6h0v50.2c0,6.5-6.1,14.4-12.4,16.1l-126.3,33c-9.6,2.5-16.3-2.7-16.3-12.7V237.3c0-8.6,8.2-19.2,16.5-21.4l125.7-32.8h0Z"/>
    <path class="cls-10" d="M168,363.6l-8.9-2.9,21.8-125.4c1.2-7.2-3.2-14.2-10.3-16.1l-37-10.1c-6.4-1.8-12.9,2.5-13.9,9.1l-18.1,119.1c-.4,2.3-2.6,3.7-4.8,3l-5.1-1.7c-2.3-.8-3.8-2.9-3.8-5.3v-121.6c0-8.3-5.6-15.5-13.6-17.5l-36.9-9.5c-5.5-1.4-10.9,2.8-10.9,8.5v372.6c0,8.7,5.8,16.2,14.2,18.5l30.2,8.2c8.6,2.3,17.1-4.2,17.1-13.1v-169.9c0-5.2,5.1-8.9,10.1-7.3l14.1,4.6c5.7,1.9,9.6,7.2,9.6,13.3v172.3c0,8.8,5.9,16.6,14.4,18.9l33.9,9.3c6.6,1.8,13.2-3.2,13.2-10v-180.3h.2c0,0,0-45.4,0-45.4,0-9.6-6.1-18.1-15.3-21.1h0Z"/>
  </g>
  <g>
    <g>
      <path class="cls-10" d="M491.2,359.4c-1.8,0-2.8,0-3.8-.1h-3.8c-2,0-3,.1-3.8.1-1,.1-2,.2-4,.2s-2.8,0-3.8-.1c-.9,0-1.8-.1-3.8-.1s-3.8-1.8-3.8-4,0-3.5-.1-4.6c0-1.1-.1-2.3-.1-4.7s.1-3.6.1-4.6c.1-1.1.1-2.3.1-4.7s-.1-3.6-.1-4.6c-.1-1.1-.2-2.3-.2-4.7s0-3.6.1-4.7v-18.5c.1-1.1.1-2.2.1-4.6v-4.7c0-1.1.1-2.2.1-4.6s0-3.6.1-4.7c0-1.1.1-2.3.1-4.7s0-3.5-.1-4.6v-4.7c0-2.3,0-3.6.1-4.6,0-1.1.1-2.3.1-4.7s-.2-3.6-.4-4.6c-.1-1.1-.4-2.3-.4-4.7s.1-3.6.1-4.7v-4.6c0-2.3.1-3.6.2-4.7s.2-2.2.2-4.6.1-3.6.1-4.7v-4.6c0-2.5-.2-3.6-.4-4.7-.1-1.1-.4-2.3-.4-4.7v-27.8c0-2.1,2.1-3.7,4.2-3.7s3-.1,3.8-.2c1-.1,2-.2,3.8-.2h15.4c2.1,0,3.7,2.1,3.7,4.2v4.3c.1,1,.1,2.2.1,4.3v8.6c0,2.1.1,3.2.1,4.3s.1,2.2.1,4.3.1,3.3.1,4.3c.1,1,.1,2.2.1,4.3s-.1,3.3-.2,4.3c0,1-.1,2.2-.1,4.3s.1,3.3.1,4.3c.1,1,.2,2.2.2,4.3s0,3.3-.1,4.3c0,1.1-.1,2.2-.1,4.3s.5,2.2,1.4.4c1-2.1,1.6-3.5,2.1-4.4.5-1.1,1.1-2.3,2.1-4.4,1.1-2.1,1.7-3.2,2.6-4.2.6-1,1.4-2.1,2.5-4.2,1-2.1,1.5-3.5,2-4.6.5-1,1-2.3,2-4.4,1.1-2.1,1.7-3.3,2.2-4.4.4-1,1-2.3,2.1-4.4,1-2.1,1.6-3.3,2.1-4.4.5-1,1.1-2.2,2.2-4.3,1.1-2.1,1.8-3.3,2.5-4.2.6-1,1.5-2.2,2.5-4.3,1.1-2.1,1.6-3.5,2-4.4.5-1.1,1-2.5,2-4.6,1.1-2,3.8-3.3,5.9-3.3s3,.1,4,.2c.9.1,2,.2,4,.2s3-.2,4-.4,2-.4,4-.4,3,.2,4,.4c1,.1,2,.2,4,.2s2.7,1,1.7,3c-1,1.8-1.5,3-1.6,4-.4,1.1-.7,2.2-1.7,4.1-.9,2-1.5,3-2.1,3.8-.5.9-1.1,1.8-2,3.8-1,1.9-1.6,3-2.1,3.8-.5,1-1,2-2,3.8-1,2-1.4,3.1-1.7,4.1s-.7,2.1-1.7,4c-1,2-1.6,2.8-2.2,3.7-.6.9-1.4,1.9-2.3,3.7-1,2-1.5,3.1-1.6,4.1-.4,1-.7,2.1-1.6,4.1-1,1.8-1.6,2.8-2.1,3.8-.5.9-1,2-2,3.8-1,2-1.4,3-1.8,4-.4,1-.9,2.1-1.8,4-.9,2-1.5,3-2.1,3.8-.5,1-1.1,1.8-2.1,3.8-.9,2-1.2,4.9-.4,6.9.6,2.1,1.2,3.1,1.8,4.1.5,1,1.1,2,1.7,4.1.9,2,1.1,3.1,1.5,4.2.1,1,.5,2.2,1.4,4.2s1.4,3.1,1.7,4.1c.5,1,1,2,1.8,4.1.6,2,1,3.1,1.4,4.2.4,1,.5,2.2,1.4,4.2s1.1,3.1,1.5,4.1c.5,1.1.7,2.2,1.6,4.2.9,2,1.2,3.1,1.7,4.1s.9,2.1,1.7,4.1c.9,2.1,1.2,3.2,1.4,4.2.4,1,.6,2.2,1.5,4.2.9,2.1,1.4,3.1,1.8,4.1.6.9,1.1,2,2,4s1.2,3.2,1.6,4.2c.4,1,.7,2.1,1.6,4.1s1,3.2,1.4,4.2c.4,1.1.5,2.2,1.4,4.3.9,2,1.4,3.1,1.8,4,.5,1,1,2.1,1.9,4.1.6,2-.5,3.7-2.6,3.7s-3.1-.1-4.1-.1h-4.1c-2,0-3.1-.1-4-.1h-12.2c-2.1,0-4.4-1.4-5.3-3.3-.6-2-1.1-3.1-1.5-4.1-.4-.9-.7-2-1.6-4-.6-2-1-3.1-1.4-4.1-.4-1-.6-2.1-1.5-4.1-.6-2-1.1-3-1.5-4-.4-1-.9-2.1-1.5-4-.9-2-1.2-3.1-1.7-4-.5-1-1.1-2-1.7-4-.9-2-1-3.1-1.1-4.2-.1-1-.5-2.1-1.1-4.1-.9-2-1.1-3-1.6-3.8-.4-1-.7-2.1-1.6-4.2-.9-2.1-1.2-3.2-1.6-4.2-.4-.9-.9-1.8-1.5-3.8-.9-2-2.2-2-3.2-.1-1.5,3-2.3,4.6-3.2,5.9-.9,1.4-1.7,3-3.2,5.9-.9,2-1.5,5.2-1.5,7.3s.1,3.6.1,4.7v4.6c0,2.3.1,3.6.1,4.6v14c0,2.3.1,3.5.1,4.6s.1,2.2.1,4.6-2.2,4-4.3,4h0Z"/>
      <path class="cls-10" d="M606.6,359.5c-1,.1-2.3.2-4.4.2s-4.1-2.2-4.1-4.3v-9.3c0-2.3-.1-3.6-.1-4.6s-.1-2.3-.1-4.7.2-3.6.4-4.6c.1-1.1.4-2.3.4-4.7s-.1-3.6-.2-4.7c-.1-1-.2-2.2-.2-4.6s0-3.6-.1-4.7v-4.6c0-2.3-.1-3.6-.1-4.7v-4.6c0-2.3.2-3.6.4-4.7.1-1.1.2-2.2.2-4.6s-.1-3.6-.2-4.7c-.1-1.1-.2-2.3-.2-4.7s.1-3.5.1-4.6.1-2.3.1-4.7.1-3.6.2-4.6c.1-1.1.2-2.3.2-4.7s-.2-3.6-.4-4.6c-.1-1.1-.4-2.3-.4-4.7s.2-3.6.4-4.7c.1-1,.2-2.2.2-4.6s.1-3.6.1-4.7v-4.6c0-2.3,0-3.6-.4-4.7-.1-1.1-.2-2.2-.2-4.6s0-3.6.1-4.7c0-1.1.1-2.3.1-4.7v-4.6c.1-1.1.1-2.3.1-4.7s-.1-3.6-.2-4.6c-.1-1.1-.2-2.3-.2-4.7s.2-3.6.4-4.7c.1-1.1.4-2.2.4-4.6s1.4-4.2,3.5-4.2,3.5.1,4.4.1h4.6c2.3,0,3.5,0,4.6-.1,1,0,2.3-.1,4.4-.1s3.5.1,4.6.1c1.1.1,2.2.2,4.6.2h4.4c1.1,0,2.2.1,4.6.1s3.5-.1,4.6-.2c1-.1,2.3-.2,4.4-.2s3.5.1,4.6.2c1.1,0,2.2.2,4.6.2s3.5-.1,4.4-.2c1.1,0,2.2-.1,4.6-.1s3.5.1,4.6.2c1,0,2.2.2,4.6.2s3.5,1.6,3.5,3.7.1,3.8.1,5.2c.1,1.1.1,2.6.1,5.2s-.1,4.1-.1,5.2c-.1,1.4-.2,2.6-.2,5.2s-1.4,4.1-3.3,4.1h-8.4c-2,0-3.1-.1-4.2-.2-1-.1-2.1-.4-4.1-.4s-3.2.2-4.2.4c-1,0-2.1.2-4.2.2s-3.3-.1-4.4-.1h-3.8c-2-.1-3-.1-4-.1s-2.1-.1-4.4-.1-3.8,1.8-3.8,4-.1,3.8-.1,4.9-.1,2.6-.1,5.1.1,3.8.1,4.9.1,2.5.1,4.9,0,3.8.1,4.9v10c.1,1.1.1,2.5.1,4.9s1.5,3.6,3.6,3.6,3.1-.1,4.1-.1h4.1c2.1,0,3.1,0,4.1.1,1,0,2.1.1,4.1.1s3.1.1,4.1.1,2.1.1,4.1.1,3.2-.1,4.2-.2c1-.1,2-.2,4.1-.2s4,2.1,4,4.2-.1,3.8-.1,5.2-.1,2.6-.1,5.2.1,4.1.1,5.2c.1,1.4.1,2.7.1,5.3s-2,3.7-4,3.7-3.1.1-4.1.2c-1,.1-2.1.1-4.1.1h-4.1c-1-.1-2.1-.1-4.2-.1h-4.1c-1,.1-2,.1-4.1.1s-3.1-.1-4.1-.1-2-.1-4.1-.1-3.8,1.7-3.8,3.8,0,3.2-.1,4.2c0,1-.1,2.2-.1,4.3s0,3.2.1,4.2v4.3c0,2.1,0,3.3-.1,4.3,0,1-.1,2.1-.1,4.2s.2,3.3.4,4.3c.1,1,.4,2.2.4,4.3s1.1,3.2,3.5,3.6c2.1,0,3.2.1,4.2.2,1,.1,2.1.2,4.2.2s3.1,0,4.1.1h4.2c2.1,0,3.2-.2,4.2-.4,1-.1,2.1-.4,4.2-.4h16.7c2,0,4.2,2.1,4.2,4.2s-.2,3.8-.4,5.2c0,1.4-.2,2.6-.2,5.2s.2,4.1.2,5.2c.1,1.4.4,2.7.4,5.2s-2.2,4.2-4.2,4.2h-9.1c-2.3,0-3.5-.1-4.4-.2-1.1-.1-2.2-.2-4.6-.2h-4.6c-1,.1-2.3.1-4.4.1h-9.1c-2.3,0-3.5.1-4.4.1s-2.2.1-4.6.1-3.5.1-4.6.1c-1,.1-2.3.1-4.4.1s-3.6-.1-4.6-.2c-1.1,0-2.2-.1-4.6-.1s-3.5.1-4.6.1h0Z"/>
      <path class="cls-10" d="M803.7,316.4c-.1,1.1-.4,2.2-.4,4.3v4.3c-.1,1.1-.1,2.1-.1,4.4s.2,3.2.4,4.3c.1,1,.4,2.2.4,4.3s-.1,3.3-.1,4.3c-.1,1-.1,2.2-.1,4.3s-.1,3.3-.1,4.3v4.3c0,2.1-1.6,4.2-3.7,4.2s-3-.2-3.8-.4c-1-.1-2-.4-4-.4s-2.8.2-3.8.4c-.9.1-1.8.4-3.8.4s-3-.1-3.8-.1h-4c-2,0-4.2-2-4.2-4.1s0-2.7.1-3.7c.1-.9.1-1.7.1-3.7s.1-2.7.1-3.7.1-1.8.1-3.7-.1-2.3-.2-3.8c-.1-1.5-.2-2.7-.2-3.8,0-2.6.1-4.1.1-5.4.1-1.1.2-2.7.2-5.3s-.1-4.1-.1-5.4c-.1-1.4-.1-2.6-.1-5.4v-1.7c.2-2.5.2-5.6-.1-9.1-.6-4.6-1.8-8.9-4.3-9.9-2.3-.6-5.8,1.2-7.8,2.6-4.3,2.2-4.8,2.5-8.1,4.6-.4.2-.9.5-1.2.7-2,1.1-3.3,3.7-3.3,5.8s0,3.2-.1,4.3c0,1-.1,2.1-.1,4.2s.1,3.2.1,4.3c.1,1,.1,2.1.1,4.2s.1,3.2.1,4.3v4.2c0,2.1.1,3.2.1,4.3v12.7c0,2.1.1,3.3.1,4.3s.1,2.1.1,4.2-2.2,4-4.3,4-2.8,0-3.8-.1h-3.8c-2,0-3,.1-3.8.1-1,.1-2,.2-4,.2s-2.8,0-3.8-.1c-.9,0-1.8-.1-3.8-.1s-3.8-1.8-3.8-4,0-3.5-.1-4.6c0-1.1-.1-2.3-.1-4.7s.1-3.6.1-4.6.1-2.3.1-4.7-.1-3.6-.2-4.6c0-1.1-.1-2.3-.1-4.7s0-3.6.1-4.7v-18.5c.1-1.1.1-2.2.1-4.6v-4.7c0-1.1.1-2.2.1-4.6s0-3.6.1-4.7c0-1.1.1-2.3.1-4.7s0-3.5-.1-4.6v-4.7c0-2.3,0-3.6.1-4.6,0-1.1.1-2.3.1-4.7s-.2-3.6-.4-4.6c-.1-1.1-.4-2.3-.4-4.7s0-3.6.1-4.7v-4.6c0-2.3.1-3.6.2-4.7.1-1.1.2-2.2.2-4.6s0-3.6.1-4.7v-4.6c0-2.5-.2-3.6-.4-4.7-.1-1.1-.4-2.3-.4-4.7v-27.8c0-2.1,2.1-3.7,4.2-3.7s3.2-.1,4.2-.2c1-.1,2.2-.2,4.2-.2h17c2.1,0,3.2.1,4.2.2,1,.1,2.2.4,4.3.4s3.2-.1,4.2-.1,2.1-.1,4.2-.1c3.3,0,6.4.2,9.4.6,3.3.4,6.3.9,9.1,1.7,3.1,1,5.9,2.3,8.5,4,2.5,1.8,4.6,4.2,6.4,6.9,1.8,2.3,3.5,5.1,4.6,8.1.9,2.7,1.6,5.8,2,9.1.4,2.8.6,6.1.6,9.4s0,3.7.1,4.8v4.8c0,2.3-.1,3.7-.2,4.8-.1,1.1-.4,2.3-.4,4.8v2.3c.1,2.3.1,4.8-.2,7.2-.4,3.2-1,6.3-2,9.3-1.1,3.1-2.5,5.9-4.3,8.5-2,2.6-4.3,4.7-7.2,6.5,3.1,1.8,5.6,4,7.5,6.4,1.8,2.6,3.2,5.6,4.2,8.8.6,2.3,1.1,4.9,1.4,7.5,0,.6,0,1.4.1,2.1.1,1.1.4,2.1.5,3.2.5,2.1.7,4.3.7,6.4s-.1,3.3-.2,4.3h0ZM772.6,243.9c0-1.4.1-2.8.1-5.7s-.1-4.2-.1-5.7-.1-2.7-.1-5.6-.4-9.3-3.3-12.1c-2-1.4-4.3-1.5-6.7-1.5s-4-.1-5.3-.2c-1.4-.1-2.7-.2-5.7-.2s-3.8,1.8-3.8,4,0,3.2-.1,4.2c0,1.1-.1,2.2-.1,4.3s.1,3.2.1,4.2c.1,1,.1,2.1.1,4.2s.1,3.2.1,4.2v4.2c0,2.1.1,3.2.1,4.2v12.7c0,2.1.1,3.2.1,4.2s.1,2.1.1,4.2,1,2.8,2.8,2l4-2c1-.5,2.1-1,4-2,3.5-1.8,6.5-4,9.1-6.4,2.6-2.3,4.6-5.2,4.6-9.5v-5.7h0Z"/>
      <path class="cls-10" d="M916.9,351.8c-2.3,1.8-5.1,3.5-8.2,4.8-2.8,1-5.9,1.7-9.3,2.1-3,.4-6.2.5-9.5.5s-3.3.1-4.4.1-2.1.1-4.4.1-3.3-.1-4.3-.1-2.3-.1-4.4-.1-3.5.1-4.4.2c-1,0-2.1.1-4.4.1h-4.4c-1-.1-2.1-.1-4.4-.1h-4.3c-1.1,0-2.3.1-4.4.1s-4-2.1-4-4.2v-9.3c0-2.3.1-3.6.2-4.6,0-1.1.1-2.3.1-4.7s0-3.6-.1-4.6c0-1.1-.1-2.3-.1-4.7s.1-3.6.2-4.7c0-1,.1-2.2.1-4.6s-.2-3.6-.4-4.7c-.1-1-.4-2.2-.4-4.6v-4.7c.1-1.1.1-2.2.1-4.6s.1-3.6.2-4.7c.1-1.1.2-2.2.2-4.6s0-3.6.1-4.7v-4.7c0-2.3-.2-3.5-.4-4.6-.1-1.1-.4-2.3-.4-4.7v-27.8c0-2.3.1-3.6.2-4.7s.2-2.2.2-4.6-.1-3.6-.2-4.7-.2-2.2-.2-4.6v-18.6c0-2.3.1-3.6.2-4.6.1-1.1.4-2.3.4-4.7s-.1-3.6-.1-4.7-.1-2.2-.1-4.6,1.7-3.8,3.8-3.8,3.2-.1,4.2-.1,2.2-.1,4.3-.1,3.2-.1,4.2-.1,2.2-.1,4.3-.1,3.2.1,4.2.2c1.1,0,2.2.1,4.3.1s3.2-.1,4.2-.1c1.1-.1,2.2-.2,4.3-.2s3.2.1,4.3.1,2.1.1,4.2.1c3.3,0,6.4.1,9.4.5,3.3.4,6.3,1.1,9.1,2,2.6,1,4.9,2.3,7,4,.4.2.6.5,1,.7,2.7,1.7,5.1,3.8,6.9,6.2s3.3,5.2,4.6,8.3c1,2.7,1.7,5.8,2.1,9.1.2,1.8.2,3.8.1,5.9-.1,1.1-.1,2.2-.1,3.5,0,2,.1,3,.2,4s.2,2.1.2,4.1-.1,4.1-.2,6.2c-.1.7-.1,1.5-.2,2.2-.1,1.8-.5,3.6-.9,5.4-.1.9-.4,1.8-.5,2.7-.1.9-.4,1.8-.5,2.8-.1,1.8-.5,3.7-1,5.4-.9,2.1-2.1,4.2-3.6,6.1l-.7,1.1c-1.5,2.3-3.3,4.3-5.7,6.1,3,1.8,5.4,4,7.5,6.4,2,2.6,3.6,5.6,4.7,8.8,1.2,3,2.1,6.2,2.7,9.5.5,3.2.7,6.5.7,9.9s.1,5.1.1,6.5v6.5c0,3.3-.2,6.5-.6,9.5-.5,3.3-1.2,6.4-2.2,9.3-1.4,3.1-3,5.8-4.8,8.3-2,2.5-4.3,4.7-6.9,6.5h0ZM872.6,221.8c-.1,1.1-.2,2.5-.2,4.9s.1,3.8.2,4.9c0,1.1.1,2.5.1,4.9v4.9c0,1.1.1,2.5.1,4.9v9.9c0,2.1,1,2.6,3,1.5,2-1.1,3-2,4-2.6,1-.5,2-1.2,4-2.6.9-.5,1.8-1,3-1.5,1.2-.6,2.5-1.4,3.7-2.1,2.5-1.4,4.4-3,5.8-4.7,1.4-1.8,1.4-4,1.4-6.1s.1-4.3.1-5.7c.1-1.5.1-2.8.1-5.7s-.4-9.3-3.3-12.1c-2-1.5-4.6-1.6-6.7-1.6-2.3-.1-4.2-.1-5.3-.2-1.5,0-3-.1-5.9-.1s-3.8,1.8-3.8,4-.1,3.8-.1,4.9h0ZM900.5,314c0-.9.1-1.6.1-3.5s-.1-2.7-.2-3.6c-.1-.9-.2-1.8-.2-3.5v-1c.1-2.5,0-5.6-.5-9.1-.9-4.1-2.1-7.7-4.6-8.8-2.3-.6-4.9.6-6.8,1.7-1.6,1-2.6,1.4-3.2,1.8-.9.4-1.6.6-3,1.5-1.2.6-2.1,1.1-2.7,1.5-.9.5-1.6,1-3.5,2-1.8,1.1-3.2,3.7-3.2,5.8s-.1,3.6-.1,4.7c-.1,1.1-.2,2.2-.2,4.7s.1,3.6.2,4.6c0,1.1.1,2.3.1,4.7v4.7c0,1.1.1,2.3.1,4.7s1.6,3.6,3.7,3.6h13.5c2.3,0,4.7-.4,6.5-1.8,3.3-2.5,3.8-7.5,3.8-11.1s.1-2.6.1-3.6h0Z"/>
      <path class="cls-10" d="M1059.9,184.7c2.1,0,3.5,1.6,2.8,3.7-.5,2-1,3.2-1.1,4.3-.1,1-.6,2.2-1.1,4.3-.6,2-1.1,3.2-1.5,4.2-.5,1-1,2.1-1.6,4.2-.5,2.1-.9,3.3-1,4.3-.4,1.1-.5,2.3-1.1,4.3-.6,2.1-1,3.3-1.5,4.3-.4,1-.7,2.1-1.4,4.2-.6,2.1-.9,3.3-1.2,4.3-.4,1-.7,2.2-1.4,4.3-.6,2-1,3.2-1.1,4.2-.4,1.1-.6,2.3-1.2,4.3-.6,2.1-1.1,3.2-1.6,4.2s-1,2.1-1.6,4.2c-.6,2.1-1,3.3-1.1,4.3-.1,1.1-.5,2.3-1.1,4.4-.6,2-.9,3.2-1.2,4.3-.1,1-.5,2.2-1.1,4.3-.6,2-1.1,3.2-1.2,4.2-.4,1.1-.7,2.2-1.4,4.3-.5,2.1-1.1,3.2-1.5,4.2-.5,1-1.1,2.1-1.6,4.2-.6,2.1-1,3.3-1.1,4.3-.1,1.1-.5,2.3-1,4.4-.6,2.1-1,3.2-1.5,4.2-.4,1-.7,2.2-1.4,4.3s-1.6,5.4-1.6,7.4.2,3.7.4,4.8c.1,1.1.2,2.5.2,4.8s-.1,3.7-.2,4.8c-.1,1.1-.4,2.5-.4,4.8v9.6c0,2.5.1,3.7.2,4.8.4,1.1.4,2.5.4,4.8s0,3.7-.1,4.8c0,1.1-.1,2.5-.1,4.8s-1.7,3.7-3.8,3.7-2.8.1-3.8.2c-1,.1-1.8.2-3.8.2s-3-.2-3.8-.4c-1-.1-2-.4-4-.4s-2.8.2-3.8.4-2,.4-3.8.4-4-2.1-4-4.2-.1-3.7-.2-4.8c0-1.1-.1-2.3-.1-4.8s.1-3.7.1-4.8c.1-1.1.2-2.3.2-4.8v-4.8c.1-1.1.1-2.3.1-4.8s-.1-3.6-.2-4.7-.2-2.5-.2-4.9.2-3.6.2-4.7c.1-1.1.4-2.5.4-4.9s-.6-5.4-1.2-7.4c-.6-2.1-1-3.3-1.1-4.3-.1-1.1-.5-2.3-1.1-4.3-.6-2.1-1-3.3-1.4-4.3-.5-1-.9-2.1-1.5-4.2-.5-2.1-.9-3.3-1.2-4.3-.4-1-.7-2.2-1.4-4.2-.6-2.1-.9-3.3-1.2-4.3-.4-1-.7-2.2-1.4-4.2-.6-2.1-.9-3.3-1.2-4.3-.4-1-.7-2.2-1.4-4.3-.5-2-.9-3.2-1.2-4.2-.5-1-.9-2.2-1.4-4.3-.6-2-1-3.2-1.1-4.3-.4-1-.5-2.2-1.1-4.3-.6-2.1-.9-3.2-1.2-4.3-.1-1-.5-2.2-1.1-4.3-.6-2-1-3.2-1.5-4.2-.4-1-.9-2.1-1.5-4.2-.5-2.1-1-3.3-1.1-4.3-.4-1-.6-2.2-1.1-4.3-.6-2.1-.9-3.3-1.2-4.3-.4-1-.6-2.2-1.2-4.3-.5-2.1-1-3.2-1.4-4.2s-.7-2.2-1.4-4.3c-.5-2.1-1-3.3-1.1-4.3-.4-1-.6-2.2-1.2-4.3-.5-2.1.7-4,2.8-4h4.1c1,.1,2.1.1,4.1.1h4.1c1-.1,2.1-.1,4.1-.1s3.1.1,4.1.1,2.1.1,4.2.1,4.2,1.7,4.8,3.7c.5,2.3.9,3.7,1,4.8.4,1.1.6,2.3,1.1,4.7.6,2.3,1,3.7,1.4,4.7.4,1.1.7,2.3,1.4,4.7.5,2.3.9,3.7,1,4.8.4,1.1.6,2.3,1.1,4.7.6,2.3,1.1,3.6,1.6,4.7.5,1,1,2.2,1.6,4.6.5,2.3.9,3.7,1.2,4.8.1,1.1.6,2.3,1.1,4.7.6,2.3.9,3.7,1,4.8.1,1.1.4,2.3,1,4.8.6,2.3.9,3.6,1.2,4.7.1,1.1.5,2.3,1.1,4.7.6,2,1.4,2,2.1-.1.5-2.3.9-3.7,1.2-4.8.4-1,.6-2.3,1.2-4.7.6-2.3,1-3.6,1.4-4.7s.6-2.3,1.2-4.7c.6-2.3,1-3.7,1.4-4.8.4-1,.6-2.3,1.2-4.7.6-2.3,1.1-3.6,1.5-4.6.5-1.1,1-2.3,1.6-4.7s.9-3.7,1-4.8.5-2.3,1.1-4.7c.5-2.3.9-3.7,1.2-4.8.4-1,.7-2.3,1.4-4.7s.9-3.6,1.2-4.7c.4-1.1.6-2.3,1.2-4.7.6-2.1,3.2-3.5,5.2-3.5h5.6c1.5-.1,2.8-.1,5.7-.1h11.2Z"/>
    </g>
    <g>
      <path class="cls-1" d="M524.7,403.7c2.8,1,5.6,2.2,7.9,3.7,2.6,1.5,4.9,3.2,7,5.2,1.5,1.6,2.7,3.5,3.7,5.4l1.1,1.8c.1.2.4.5.5.9,1.4,2.1,2.6,4.3,3.5,6.8,1,2.6,1.7,5.4,2.2,8.4.5,2.8.7,5.7.7,8.6s-.2,3-.4,4c-.1,1-.2,2-.2,4s.1,3,.2,4,.2,2,.2,4-2.1,4-4.2,4-4.1-.2-5.4-.2c-1.4-.1-2.6-.2-5.4-.2s-4.1.1-5.4.2c-1.4.1-2.6.4-5.4.4s-3.5-2-3.5-4.1v-4.3c.1-1.1.1-2.2.1-4.3s-.2-3.3-.4-4.3c-.1-1.1-.4-2.1-.4-4.4,0-4.1-1.1-7.4-3.2-9.8-2.3-2.3-5.6-3.6-9.8-3.6s-7.2,1.5-9.5,4c-2.3,2.1-4.1,5.3-4.1,9.4s.2,3.6.4,4.6c.1,1.1.4,2.5.4,4.6s0,3.6-.1,4.6v4.6c0,2.3,0,3.6.1,4.6,0,1.1.1,2.2.1,4.6s-.1,3.6-.1,4.6c-.1,1.1-.2,2.2-.2,4.6v4.6c0,1.1-.1,2.2-.1,4.6s.1,3.5.2,4.6c.1,1.1.2,2.2.2,4.6s-.1,3.5-.2,4.6c0,1.1-.1,2.2-.1,4.6s0,3.5.1,4.6c0,1.1.1,2.2.1,4.6s-.1,3.5-.2,4.6c0,1.1-.2,2.2-.2,4.6v4.6c-.1,1.1-.1,2.2-.1,4.6,0,4.2,1.2,7.4,3.7,9.6,2.3,2.6,5.7,3.8,9.8,3.8s7.3-1.8,9.6-4c2.2-2.1,3.3-5.3,3.3-9.5s.2-4.2.4-5.6c0-1.4.2-2.8.2-5.4s-.1-4.3-.1-5.7-.1-2.7-.1-5.3,1.6-3.8,3.7-3.8,4.1.1,5.4.1,2.8.1,5.4.1,4.1-.1,5.4-.1,2.8-.1,5.4-.1,4,1.7,4,3.8v5.1c.1,1.1.1,2.6.1,5.1v10.2c0,3-.1,5.8-.4,8.6-.5,2.8-1.2,5.4-2.2,7.8,0,.2,0,.5-.1.6-1.1,2.8-2.3,5.4-3.8,7.8-.1.2-.4.5-.5.7-1.2,2.3-2.7,4.6-4.6,6.4-2.1,2-4.3,3.7-6.9,5.2-2.5,1.4-5.1,2.6-7.9,3.5-2.6,1-5.4,1.7-8.4,2.2-2.8.2-5.7.4-8.6.4h-2.1c-2.3.1-4.6,0-6.7-.2-3-.5-5.8-1.2-8.4-2.1-2.8-1-5.6-2.2-7.9-3.6-2.6-1.6-4.8-3.5-6.8-5.6-2-2.1-3.7-4.3-5.3-6.8-1.4-2.3-2.3-4.9-3.2-7.8,0,0,0-.2-.1-.2-.9-2.6-1.6-5.3-2.1-8.3-.4-2.3-.5-4.7-.4-7.2v-1.5c0-2.3-.2-3.3-.4-4.4-.1-1-.4-2.2-.4-4.3s.1-3.5.1-4.4v-4.4c0-2.1.1-3.3.2-4.3.1-1.1.2-2.3.2-4.4s.1-3.3.1-4.4v-4.3c0-2.3-.2-3.5-.4-4.4-.1-1.1-.4-2.1-.4-4.4v-26.4c0-2.1.1-3.3.2-4.4.1-1,.2-2.2.2-4.3s-.1-3.5-.2-4.4c-.1-1-.2-2.1-.2-4.4s.2-5.8.7-8.6c.4-3.1,1-5.9,1.8-8.5.9-2.1,1.8-4.1,3.2-5.9.4-.6.6-1.1,1-1.7,1.5-2.5,3.2-4.7,5.2-6.8,2.1-2.1,4.3-3.8,6.8-5.4,2.3-1.5,4.9-2.7,7.8-3.8,2.6-1,5.4-1.7,8.4-2.2,2.1-.2,4.2-.4,6.4-.2h4.6c2.2-.1,4.3,0,6.4.2,3,.5,5.8,1.2,8.4,2.2h0Z"/>
      <path class="cls-8" d="M633.5,576.5c-2.1,0-4.1-.2-5.9-.9-.9-.1-1.8-.4-2.7-.5-.6-.1-1.2-.1-1.8-.2-2.3-.2-4.7-.7-6.8-1.4-2.8-.9-5.6-2-8-3.3-2.6-1.6-4.9-3.3-7-5.3-1.6-1.6-2.8-3.5-4-5.6-.4-.6-.6-1.1-1-1.7-.4-.4-.6-.9-.9-1.2-1.4-2-2.6-4.1-3.5-6.3-.9-2.7-1.5-5.6-1.8-8.6-.2-2.7-.4-5.6-.4-8.6s-.1-3.3-.1-4.4v-4.3c0-2.3.1-3.5.1-4.4s.1-2.1.1-4.4-.1-3.3-.1-4.3-.1-2.3-.1-4.4,0-3.3-.1-4.4v-8.8c-.1-1.1-.1-2.1-.1-4.4v-8.8c0-2.3-.1-3.3-.1-4.4s-.1-2.2-.1-4.3.1-3.5.2-4.4c0-1.1.1-2.1.1-4.4s.1-3.3.1-4.4.1-2.2.1-4.3-.1-3.5-.2-4.4c-.1-1-.2-2.1-.2-4.4s.2-5.9.9-8.6c.5-3.1,1.2-5.9,2.2-8.5,1-2.8,2.2-5.4,3.6-7.9,1.6-2.5,3.6-4.7,5.7-6.7,0,0,0-.1.1-.1,2-2.1,4.2-3.8,6.5-5.4,2.5-1.5,5.2-2.7,8-3.6,2.7-.9,5.6-1.6,8.5-2.1,2.8-.2,5.7-.4,8.8-.4s5.8.2,8.6.6c2.7.5,5.3,1.2,7.8,2.1.1.1.4.1.6.2,2.8.9,5.6,2.1,8,3.5,2.5,1.6,4.7,3.3,6.7,5.4.5.5,1,1,1.6,1.5,1.6,1.4,3.1,3,4.4,4.8,1.5,2.5,2.7,5.2,3.7,8,.6,2,1,4.1,1.2,6.3l.4,2.2c.4,2.7.5,5.6.5,8.6s.2,3.3.4,4.4c.1,1,.4,2.1.4,4.4v26.4c0,2.1-.1,3.3-.2,4.3-.1,1.1-.2,2.1-.2,4.4s.1,3.3.2,4.4c.1,1,.2,2.2.2,4.3v4.4c0,1-.1,2.1-.1,4.4s.1,3.3.1,4.3v4.4c0,2.1-.1,3.3-.2,4.4-.1,1-.4,2.2-.4,4.3s.1,3.5.1,4.4.1,2.1.1,4.4-.2,5.9-.6,8.6c-.4,3.1-1.1,5.9-2,8.5-.9,2.8-2.1,5.6-3.6,8-1.5,2.3-3.2,4.3-5.3,6.2-.1.1-.4.2-.5.4l-.4.4c-1.8,2.1-4,3.8-6.3,5.3-2.5,1.4-5.2,2.6-8.1,3.5-2.6.9-5.4,1.6-8.5,2-2.8.6-5.7.9-8.6.9h0ZM633.5,547.6c4.1,0,7.3-1.2,9.5-3.6,2.5-2.2,3.7-5.4,3.7-9.6s-.1-3.5-.2-4.6c0-1.1-.1-2.2-.1-4.6v-4.6c.1-1,.1-2.2.1-4.6v-4.6c-.1-1-.1-2.2-.1-4.6s.1-3.5.1-4.6.1-2.2.1-4.6v-9.1c0-2.1.1-3.5.2-4.6,0-1,.1-2.2.1-4.6s-.1-3.5-.1-4.4-.1-2.5-.1-4.6.1-3.6.1-4.6c.1-1.1.2-2.5.2-4.6s-.2-3.6-.4-4.6c-.1-1.1-.4-2.5-.4-4.6v-4.6c0-1.1.1-2.3.1-4.7,0-4.1-.7-7.5-3.1-9.9-2.3-2.5-5.7-3.7-9.9-3.7s-7.2,1.7-9.5,4.1c-2.3,2.3-3.8,5.4-3.8,9.5v4.6c.1,1.1.1,2.5.1,4.6s-.1,3.6-.1,4.6c-.1,1.1-.1,2.2-.1,4.6s0,3.6.1,4.6c0,1.1.1,2.2.1,4.6v4.6c.1,1.1.1,2.2.1,4.6v4.6c0,1.1.1,2.2.1,4.6v9.1c0,2.3,0,3.5.1,4.6v4.6c0,2.3,0,3.5-.1,4.6s-.1,2.2-.1,4.6-.1,3.5-.1,4.6-.1,2.2-.1,4.6.1,3.5.2,4.6c.1,1.1.2,2.2.2,4.6,0,4.2,1.1,7.4,3.2,9.6,2.2,2.3,5.4,3.6,9.6,3.6h0Z"/>
      <path class="cls-7" d="M725.7,484.1c.1-1.1.2-2.3.6-4.7.4-2.3.5-3.5.9-4.6.1-1.1.5-2.3.9-4.7.4-2.1.4-3.6.4-4.7s-.1-2.3.4-4.7c.4-2.1.4-3.5.7-4.6.1-1.1.2-2.3.7-4.7.4-2.3.7-3.5.9-4.6.4-1.1.6-2.5,1-4.6.4-2.3.5-3.6.9-4.7.1-1.1.4-2.5.7-4.6.4-2.3.4-3.7.4-4.7-.1-1.1-.1-2.5.2-4.8.4-2.1.6-3.5.7-4.6.1-1.1.2-2.3.7-4.7.4-2.3.5-3.6.6-4.7.4-1,.4-2.2.7-4.6.5-2.1,2.7-4.1,4.8-4.1s3.8.1,4.9.2c1.1.1,2.5.2,4.9.2s3.8-.1,4.9-.2c1.1-.1,2.5-.2,4.9-.2h19.8c2.1,0,3.8,1.9,4.2,4.2.4,2.1.5,3.5.9,4.6.1,1.1.4,2.5.7,4.6.4,2.3.6,3.6.7,4.7.1,1.1.4,2.3.7,4.7.4,2.1.6,3.5.7,4.6.4,1.1.5,2.3.9,4.7.4,2.1.5,3.5.9,4.6.1,1.1.5,2.5.9,4.6.4,2.3.4,3.6.5,4.7,0,1.1.1,2.3.5,4.7.4,2.3.7,3.6.9,4.6.4,1.1.5,2.3,1,4.7.4,2.3.5,3.6.5,4.6.1,1.1.2,2.3.6,4.7.5,2.5.6,3.7.7,4.8.1,1.1.4,2.3.7,4.4.4,2.3.6,3.6.7,4.7.4,1.1.5,2.2.9,4.6s.4,3.6.4,4.7,0,2.3.4,4.7c.4,2.3.7,3.6.9,4.7.4,1,.6,2.2,1,4.6s.6,3.6.7,4.6c.4,1.1.5,2.3.9,4.7.4,2.3.6,3.6.7,4.6.1,1.1.4,2.3.7,4.7.4,2.3.4,3.6.4,4.7s0,2.3.4,4.7c.5,2.3.6,3.6,1,4.6.4,1.1.6,2.3,1,4.7.4,2.1.5,3.5.6,4.6.1,1.1.2,2.3.6,4.7.4,2.3.4,3.6.5,4.7,0,1.1,0,2.3.4,4.7.4,2.3.7,3.6,1.1,4.6.4,1.1.6,2.5,1,4.6s-1.5,3.6-3.5,3.6-3-.1-4-.1h-4c-1.8,0-3,0-3.8.4-1,.1-2,.4-4,.4s-3-.1-4-.2c-.9,0-1.9-.1-3.8-.1s-3.8-1.6-4.3-3.7c-.4-2.5-.6-3.8-1-4.9s-.6-2.5-1-4.8c-.4-2.5-.4-4-.4-5.1s0-2.6-.4-4.9c-.4-2.5-.7-3.7-1.1-4.8-.5-1.1-.7-2.5-1.2-4.9-.4-2.5-.5-3.8-.5-4.9-.1-1.1-.1-2.6-.6-5.1-.4-2-2.1-2.8-4-1.9-1.8,1.1-2.8,1.6-3.8,2.1-.9.4-1.8,1-3.7,2-1.8,1.1-2.8,1.7-3.7,2.3-.9.5-1.7,1.2-3.6,2.2-1.8,1-2.8,1.6-3.7,2.2-.9.5-1.8,1.1-3.7,2.2-1.8,1-3.3,3.5-3.7,5.6-.5,2.8-.7,4.3-.9,5.7-.1,1.4-.4,2.8-.9,5.7-.4,2.8-.6,4.3-.7,5.7-.1,1.5-.4,2.8-.7,5.7-.5,2.1-2.7,3.8-4.8,3.8s-4,0-5.3-.1h-5.3c-2.6,0-4,.1-5.3.1-1.1.1-2.6.2-5.2.2s-3.6-2-3.5-4.1c.4-2.3.5-3.6.9-4.7.1-1.1.4-2.5.7-4.6.4-2.3.5-3.6.6-4.7.1-1.1.2-2.3.6-4.7.4-2.3.6-3.6.7-4.6.4-1.1.5-2.3.9-4.7.4-2.1.5-3.6.5-4.6.1-1.1.1-2.6.5-4.7.4-2.3.5-3.6.9-4.7.1-1.1.4-2.5.7-4.6.4-2.3.6-3.6.7-4.7,0-1.1.2-2.3.6-4.7.4-2.1.6-3.5.7-4.6.4-1.1.5-2.5.9-4.6.4-2.3.6-3.6.7-4.7s.4-2.3.7-4.7c.4-2.1.5-3.5.9-4.6.1-1.1.5-2.5.9-4.6.4-2.3.5-3.6.6-4.7h0ZM753.3,508.3c1.5-.9,2.5-1.4,3.1-1.7.9-.4,1.7-.7,3.2-1.7,1.5-.9,2.1-1.4,3-1.8.6-.6,1.4-1.1,3-2,1.8-1.1,3.1-3.3,2.7-5.4-.4-2.3-.5-3.6-.6-4.7s-.4-2.3-.7-4.7c-.4-2.3-.6-3.7-.7-4.7-.4-1.1-.5-2.3-.9-4.7s-.6-3.7-.6-4.8c-.1-1.1-.2-2.3-.7-4.7-.4-2.3-.5-3.6-.9-4.6-.4-1.1-.5-2.5-.9-4.8-.4-2.3-.5-3.6-.5-4.7-.1-1.1-.1-2.5-.6-4.8-.4-2.1-.9-2.1-1.2,0-.4,2.5-.7,3.7-.9,4.8-.4,1.1-.5,2.5-1,4.8-.4,2.5-.5,3.6-.6,4.9,0,1.1-.2,2.5-.6,4.8-.4,2.3-.6,3.7-.7,4.8,0,1.1-.2,2.5-.6,4.8-.5,2.5-.6,3.7-.7,4.8-.1,1.4-.4,2.5-.7,4.9-.4,2.3-.6,3.7-.7,4.8s-.4,2.5-.7,4.8c-.4,2.5-.6,3.7-.7,4.8,0,1.4-.2,2.5-.6,4.9-.4,2.1.4,2.7,2.2,1.7h0Z"/>
      <path class="cls-5" d="M906.7,403.7c2.8,1,5.6,2.2,7.9,3.7,2.6,1.5,4.9,3.2,7,5.2,1.5,1.6,2.7,3.5,3.7,5.4l1.1,1.8c.1.2.4.5.5.9,1.4,2.1,2.6,4.3,3.5,6.8,1,2.6,1.7,5.4,2.2,8.4.5,2.8.7,5.7.7,8.6s-.2,3-.4,4c-.1,1-.2,2-.2,4s.1,3,.2,4,.2,2,.2,4-2.1,4-4.2,4-4.1-.2-5.4-.2c-1.4-.1-2.6-.2-5.4-.2s-4.1.1-5.4.2c-1.4.1-2.6.4-5.4.4s-3.5-2-3.5-4.1v-4.3c.1-1.1.1-2.2.1-4.3s-.2-3.3-.4-4.3c-.1-1.1-.4-2.1-.4-4.4,0-4.1-1.1-7.4-3.2-9.8-2.3-2.3-5.6-3.6-9.8-3.6s-7.2,1.5-9.5,4c-2.3,2.1-4.1,5.3-4.1,9.4s.2,3.6.4,4.6c.1,1.1.4,2.5.4,4.6s0,3.6-.1,4.6v4.6c0,2.3,0,3.6.1,4.6,0,1.1.1,2.2.1,4.6s-.1,3.6-.1,4.6c-.1,1.1-.2,2.2-.2,4.6v4.6c0,1.1-.1,2.2-.1,4.6s.1,3.5.2,4.6c.1,1.1.2,2.2.2,4.6s-.1,3.5-.2,4.6c0,1.1-.1,2.2-.1,4.6s0,3.5.1,4.6c0,1.1.1,2.2.1,4.6s-.1,3.5-.2,4.6c0,1.1-.2,2.2-.2,4.6v4.6c-.1,1.1-.1,2.2-.1,4.6,0,4.2,1.2,7.4,3.7,9.6,2.3,2.6,5.7,3.8,9.8,3.8s7.3-1.8,9.6-4c2.2-2.1,3.3-5.3,3.3-9.5s.2-4.2.4-5.6c0-1.4.2-2.8.2-5.4s-.1-4.3-.1-5.7-.1-2.7-.1-5.3,1.6-3.8,3.7-3.8,4.1.1,5.4.1,2.8.1,5.4.1,4.1-.1,5.4-.1,2.8-.1,5.4-.1,4,1.7,4,3.8v5.1c.1,1.1.1,2.6.1,5.1v10.2c0,3-.1,5.8-.4,8.6-.5,2.8-1.2,5.4-2.2,7.8,0,.2,0,.5-.1.6-1.1,2.8-2.3,5.4-3.8,7.8-.1.2-.4.5-.5.7-1.2,2.3-2.7,4.6-4.6,6.4-2.1,2-4.3,3.7-6.9,5.2-2.5,1.4-5.1,2.6-7.9,3.5-2.6,1-5.4,1.7-8.4,2.2-2.8.2-5.7.4-8.6.4h-2.1c-2.3.1-4.6,0-6.7-.2-3-.5-5.8-1.2-8.4-2.1-2.8-1-5.6-2.2-7.9-3.6-2.6-1.6-4.8-3.5-6.8-5.6-2-2.1-3.7-4.3-5.3-6.8-1.4-2.3-2.3-4.9-3.2-7.8,0,0,0-.2-.1-.2-.9-2.6-1.6-5.3-2.1-8.3-.4-2.3-.5-4.7-.4-7.2v-1.5c0-2.3-.2-3.3-.4-4.4-.1-1-.4-2.2-.4-4.3s.1-3.5.1-4.4v-4.4c0-2.1.1-3.3.2-4.3.1-1.1.2-2.3.2-4.4s.1-3.3.1-4.4v-4.3c0-2.3-.2-3.5-.4-4.4-.1-1.1-.4-2.1-.4-4.4v-26.4c0-2.1.1-3.3.2-4.4.1-1,.2-2.2.2-4.3s-.1-3.5-.2-4.4c-.1-1-.2-2.1-.2-4.4s.2-5.8.7-8.6c.4-3.1,1-5.9,1.8-8.5.9-2.1,1.8-4.1,3.2-5.9.4-.6.6-1.1,1-1.7,1.5-2.5,3.2-4.7,5.2-6.8,2.1-2.1,4.3-3.8,6.8-5.4,2.3-1.5,4.9-2.7,7.8-3.8,2.6-1,5.4-1.7,8.4-2.2,2.1-.2,4.2-.4,6.4-.2h4.6c2.2-.1,4.3,0,6.4.2,3,.5,5.8,1.2,8.4,2.2h0Z"/>
      <path class="cls-6" d="M1054.6,575.9h-4c-2,0-3,.1-4,.1-1,.1-2,.1-4,.1s-3,0-4,.1h-3.8c-2.1,0-3.8-2-3.8-4.1v-4.3c0-1-.1-2.2-.1-4.3s-.1-3.3-.1-4.3c-.1-1-.2-2.2-.2-4.3s.2-3.3.4-4.3c.4-1,.5-2.2.5-4.3s-.1-3.3-.1-4.3-.1-2.2-.1-4.3-.1-3.3-.2-4.3c0-1.1-.2-2.1-.2-4.4s.1-3.2.1-4.3v-4.3c0-2.1.1-3.3.2-4.3.1-1,.4-2.2.4-4.3s-1.8-3.1-3.8-2.1c-1.9,1-2.8,1.7-3.7,2.2-.9.5-1.8,1.1-3.7,2.2-1.6,1-2.6,1.6-3.5,2.2-1,.6-1.8,1.2-3.7,2.3-1.8,1-2.8,1.5-3.8,1.8-1,.5-2,1-3.8,2-2,1.1-3.3,3.8-3.3,5.9s0,3.3-.1,4.3c0,1.1-.1,2.3-.1,4.4s.1,3.3.1,4.4c.1,1,.1,2.2.1,4.3s.1,3.5.1,4.4v4.4c0,2.1,0,3.3.1,4.3v13.2c0,2.1-2,4.3-4.1,4.3s-2.8-.1-3.8-.2c-1,0-1.8-.1-3.8-.1s-3,0-3.8-.1h-4c-1.9,0-2.8.1-3.8.1-1,.1-2,.2-3.8.2s-4-2.1-4-4.2v-4.6c.1-1.1.1-2.3.1-4.7s-.1-3.6-.1-4.6-.1-2.3-.1-4.7.1-3.6.1-4.6.1-2.3.1-4.7-.1-3.6-.2-4.7c0-1-.1-2.2-.1-4.6s0-3.6.1-4.7v-9.3c0-1.1-.1-2.2-.1-4.6s.1-3.6.1-4.7c.1-1.1.1-2.2.1-4.6v-9.4c0-2.3.1-3.5.2-4.6,0-1.1.1-2.3.1-4.7s0-3.6-.1-4.6v-4.7c0-2.3,0-3.6.1-4.6,0-1.1.1-2.3.1-4.7s-.2-3.6-.4-4.7c-.1-1-.4-2.2-.4-4.6v-4.7c.1-1.1.1-2.2.1-4.6s.1-3.6.2-4.7.2-2.2.2-4.6,0-3.6.1-4.7v-4.7c0-2.3-.2-3.5-.4-4.6-.1-1.1-.4-2.3-.4-4.7v-18.5c0-2.1,2.1-4.2,4.2-4.2s2.8.1,3.8.2c1,.1,1.8.2,3.8.2s3-.1,3.8-.2c1-.1,2-.2,4-.2h7.7c2.1,0,4.2,2.1,4.2,4.2s-.1,3.3-.2,4.4c-.1,1-.4,2.1-.4,4.4s.1,3.5.1,4.4.1,2.2.1,4.6v8.9c0,2.3.1,3.5.1,4.4s.1,2.3.1,4.4.1,3.5.1,4.6.1,2.1.1,4.4-.1,3.5-.2,4.4c0,1.1-.1,2.3-.1,4.4s.1,3.5.1,4.6c.1,1,.2,2.1.2,4.4s-.1,3.5-.1,4.4-.1,2.3-.1,4.4v9c0,2.1,1,2.7,3,1.6,1.8-1.1,2.8-1.5,3.8-1.8,1-.5,2-.9,3.8-1.8,1.8-1.1,2.7-1.9,3.7-2.3.9-.6,1.7-1.4,3.6-2.3,1.8-1.1,2.7-1.7,3.7-2.2.9-.6,1.7-1.2,3.6-2.2,1.9-1.1,3.1-3.5,3.1-5.4s.2-3.6.4-4.6c.1-1.1.2-2.2.2-4.6s-.1-3.5-.2-4.6c-.1-1.1-.2-2.2-.2-4.6s0-3.5.1-4.6c0-1.1.1-2.2.1-4.6s.1-3.5.2-4.6c0-1,.2-2.2.2-4.6s-.2-3.5-.4-4.6c-.1-1-.4-2.2-.4-4.6s.2-3.5.4-4.4c.1-1.1.2-2.5.2-4.6s.1-3.6.1-4.6v-4.6c0-2.1,1.4-4.1,3.5-4.1s3,0,3.8.1c1,0,2,.1,4,.1h4c1,.1,2,.1,4,.1s3-.1,4-.2c.9-.1,2-.2,4-.2s3.3,2.1,3.3,4.2.2,3.5.4,4.6.4,2.3.4,4.7,0,3.6-.1,4.6v4.7c0,2.3,0,3.6.1,4.6,0,1.1.1,2.3.1,4.7s-.1,3.6-.1,4.7c-.1,1-.1,2.2-.1,4.6s-.1,3.6-.1,4.7-.1,2.2-.1,4.6.2,3.6.2,4.7c.1,1.1.2,2.2.2,4.6s-.1,3.6-.2,4.7c0,1.1-.1,2.2-.1,4.6s.1,3.6.1,4.7c.1,1.1.1,2.3.1,4.7s-.1,3.5-.2,4.6c0,1.1-.1,2.3-.1,4.7s-.1,3.6-.1,4.6-.1,2.3-.1,4.7.1,3.6.1,4.6c.1,1.1.1,2.3.1,4.7s-.1,3.6-.1,4.7c-.1,1-.2,2.2-.2,4.6s.2,3.6.4,4.7c.1,1.1.2,2.2.2,4.6v9.4c0,2.3-.1,3.5-.2,4.6-.1,1.1-.2,2.3-.2,4.7s.1,3.6.2,4.6c.1,1.1.2,2.3.2,4.7s0,3.6-.1,4.7v4.6c0,2.3,0,3.6-.1,4.7v4.6c0,2.1-1.7,3.7-3.7,3.7h-4,0Z"/>
    </g>
  </g>
</svg>