<svg width="35" height="34" viewBox="0 0 35 34" fill="none" xmlns="http://www.w3.org/2000/svg">
<path fill-rule="evenodd" clip-rule="evenodd" d="M19.6713 0.144935C20.5804 0.323604 21.9084 0.788527 22.5489 2.09877C23.952 4.969 22.7931 7.69706 21.5496 9.39346C20.7382 10.5001 19.6939 11.5413 18.4786 12.1792C18.225 12.3136 17.7085 12.5634 17.1131 12.5634C16.003 12.5634 14.9155 12.0466 14.0233 11.4011C13.8542 11.989 13.6908 12.6345 13.5499 13.3184C13.2713 14.6307 13.1203 15.9679 13.0991 17.3106C15.077 16.6574 17.0999 16.7266 18.843 17.7333C20.152 16.6795 21.659 15.9125 23.2702 15.4797C25.712 14.8246 28.6421 14.9149 31.3037 16.7285C33.2102 18.0291 34.6546 20.4786 34.9457 23.1587C35.25 25.952 34.3015 29.0067 31.4333 31.3544C29.4085 33.0104 26.3224 33.6502 23.4824 33.8826C20.5429 34.1247 17.438 33.9595 15.0282 33.6848C10.5615 33.1776 7.13176 31.9019 4.73504 30.5859C3.16289 29.7214 1.01223 28.5264 0.330409 26.6955C-0.129776 25.4545 -0.00956412 23.9483 0.103134 22.6572C0.253399 20.9647 0.621546 18.8514 1.31088 16.5614C2.6858 11.9909 5.37742 6.58278 10.2817 2.43689C11.79 1.16123 14.3144 0.369712 16.4275 0.10459C17.5169 -0.031813 18.6627 -0.0510249 19.6713 0.144935Z" fill="black"/>
</svg>
