<svg width="57" height="48" viewBox="0 0 57 48" fill="none" xmlns="http://www.w3.org/2000/svg">
<g clip-path="url(#clip0_313_681)">
<path d="M56.123 15.2116C54.9453 16.2548 53.7441 17.283 52.6566 18.4191C50.5746 20.5935 48.088 21.8451 45.1115 22.0246C44.3766 22.0686 43.9028 22.3648 43.5639 22.9674C42.5173 24.8267 41.5226 26.7186 40.4253 28.5464C39.1634 30.6479 37.6764 32.6202 36.5309 34.7832C34.7828 38.0862 34.3931 41.6979 34.8509 45.3913C34.8509 45.3988 34.8533 45.4076 34.8546 45.4151C35.0389 46.7798 34.0084 48 32.6513 48H19.6096C18.1239 48 17.0847 46.4973 17.6043 45.085C17.8727 44.3543 18.1164 43.6174 18.3107 42.8679C19.2249 39.3415 18.8463 35.7637 17.8702 32.2737C17.6921 31.6334 17.2665 31.061 16.9362 30.4684C15.8686 28.5527 15.1424 26.5302 14.9358 24.3195C14.8096 22.9637 14.2529 22.3699 12.9478 22.0661C12.5754 21.9794 12.1845 21.8891 11.8084 21.9104C9.08426 22.0698 6.95024 20.7429 4.92138 19.141C3.73251 18.2032 2.6055 17.1725 1.34736 16.344C0.079317 15.5091 -0.200271 14.3843 0.12509 13.0611C0.392307 11.9702 0.722616 10.8529 1.262 9.88246C2.37911 7.87885 3.66942 5.97693 4.85457 4.01098C5.25416 3.34939 5.56468 2.63131 5.89128 1.92703C6.38736 0.85869 7.22736 0.298784 8.35808 0.155669C8.64385 0.119262 8.93334 0.104198 9.22159 0.110475C12.4381 0.185798 13.716 2.00989 12.735 5.15088C12.6558 5.40196 12.4591 5.69447 12.2401 5.79364C12.1078 5.8539 11.7045 5.62668 11.6352 5.44464C11.3197 4.61106 10.6665 4.45916 9.90942 4.38133C9.53581 4.34366 9.17705 4.16163 8.79231 4.03986C8.29251 5.23374 7.77045 6.44645 7.2855 7.67422C7.19767 7.89643 7.25334 8.18266 7.26447 8.43876C7.33004 10.0243 7.40179 11.6111 7.46612 13.0461C8.72055 13.0461 10.0517 12.8891 11.321 13.1038C12.1016 13.2369 12.8834 13.8382 13.4872 14.4182C13.9721 14.884 14.3259 15.0032 14.968 14.8689C16.5824 14.5299 18.2166 14.4245 19.7618 15.1991C20.1849 15.4112 20.5387 15.7577 20.9482 16.0013C21.6546 16.4231 22.3412 16.934 23.1069 17.1889C24.2748 17.578 25.2175 16.9039 25.1828 15.6548C25.1519 14.5048 24.876 13.3536 24.6175 12.225C24.5568 11.9627 24.0298 11.8384 23.8913 11.5609C23.65 11.0801 23.4979 10.5378 23.3964 10.0042C23.3012 9.49831 23.0265 8.89823 23.7725 8.57434C23.8393 8.54547 23.7812 8.16885 23.7453 7.9592C23.3803 5.80118 23.9692 4.21812 25.4983 3.27281C27.1919 2.22581 29.7985 2.24464 31.2484 3.32931C32.4707 4.24323 32.7923 5.58525 32.8999 7.01765C32.9234 7.34029 32.9024 7.66669 32.9024 7.98556C33.9762 8.55049 34.1321 8.80785 33.6657 9.94021C33.3923 10.6018 32.8641 11.1542 32.462 11.763C32.3964 11.8622 32.3383 12.0041 32.3556 12.1133C32.5337 13.2281 32.5981 14.3856 32.9507 15.4439C33.3465 16.629 34.6368 16.9139 35.7515 16.3565C36.9502 15.759 38.1836 15.2154 39.4418 14.7622C39.9577 14.5764 40.6839 14.4797 41.1317 14.7082C42.1647 15.238 42.709 14.6705 43.4265 14.1044C45.0707 12.8088 46.8991 12.3656 48.9255 13.1867C49.257 13.321 49.69 13.3386 50.0414 13.2557C50.8368 13.0699 50.9667 12.623 50.4905 11.9551C49.2076 10.1524 48.9144 8.08976 48.949 5.93801C48.9577 5.38941 49.0084 4.82323 48.8933 4.29847C48.8043 3.89549 48.4925 3.24143 48.2661 3.23515C47.8022 3.22134 47.3173 3.549 46.8595 3.77372C46.0913 4.15284 45.3379 4.56085 44.3346 5.08309C44.2183 5.70326 43.4525 5.50992 42.7659 5.48482C42.0236 5.4572 41.5907 5.04417 41.4026 4.33739C40.9845 2.76312 41.8257 1.29682 43.4525 0.797175C44.3643 0.515967 45.2859 0.264888 46.2039 0H47.9346C49.5552 0.370341 50.3494 1.65712 51.1956 2.93637C52.6034 5.06426 54.1709 7.08796 55.4946 9.26606C56.1676 10.3746 56.5078 11.7066 56.9061 12.9682C57.1857 13.8583 56.817 14.5965 56.123 15.2116Z" fill="black"/>
</g>
<defs>
<clipPath id="clip0_313_681">
<rect width="57" height="48" fill="white"/>
</clipPath>
</defs>
</svg>
