<svg width="35" height="35" viewBox="0 0 35 35" fill="none" xmlns="http://www.w3.org/2000/svg">
<path d="M8.38158 10.9605L3.13158 16.2105C2.79386 16.5482 2.37202 16.7251 1.86605 16.7411C1.36009 16.757 0.922281 16.5802 0.552631 16.2105C0.214912 15.8728 0.0386842 15.451 0.0239474 14.945C0.00921055 14.439 0.170088 14.0012 0.506579 13.6316L1.84211 12.25L0.552631 10.9605C0.18421 10.5921 0 10.1623 0 9.67105C0 9.17982 0.18421 8.75 0.552631 8.38158L3.13158 5.80263L1.79605 4.42105C1.45833 4.08333 1.28947 3.66149 1.28947 3.15553C1.28947 2.64956 1.47368 2.21175 1.84211 1.84211C2.17982 1.50439 2.60228 1.32816 3.10947 1.31342C3.61667 1.29868 4.05386 1.45956 4.42105 1.79605L5.80263 3.13158L8.38158 0.552631C8.75 0.18421 9.17982 0 9.67105 0C10.1623 0 10.5921 0.18421 10.9605 0.552631L12.25 1.84211L13.6316 0.506579C13.9693 0.16886 14.3918 0 14.8989 0C15.4061 0 15.8433 0.18421 16.2105 0.552631C16.5482 0.890351 16.7171 1.32018 16.7171 1.84211C16.7171 2.36404 16.5482 2.79386 16.2105 3.13158L10.9605 8.38158L26.6184 24.0395L31.8684 18.7895C32.2061 18.4518 32.6286 18.2755 33.1358 18.2608C33.643 18.2461 34.0802 18.4223 34.4474 18.7895C34.7851 19.1272 34.9619 19.5496 34.9779 20.0568C34.9939 20.564 34.8324 21.0012 34.4934 21.3684L33.1579 22.75L34.4474 24.0395C34.8158 24.4079 35 24.8377 35 25.3289C35 25.8202 34.8158 26.25 34.4474 26.6184L31.8684 29.1974L33.2039 30.5789C33.5417 30.9167 33.7105 31.3385 33.7105 31.8445C33.7105 32.3504 33.5263 32.7882 33.1579 33.1579C32.8202 33.4956 32.3983 33.6725 31.8924 33.6884C31.3864 33.7044 30.9486 33.5429 30.5789 33.2039L29.1974 31.8684L26.6184 34.4474C26.25 34.8158 25.8202 35 25.3289 35C24.8377 35 24.4079 34.8158 24.0395 34.4474L22.75 33.1579L21.3684 34.4934C21.0307 34.8311 20.6089 35 20.1029 35C19.5969 35 19.1591 34.8158 18.7895 34.4474C18.4518 34.1096 18.2829 33.6798 18.2829 33.1579C18.2829 32.636 18.4518 32.2061 18.7895 31.8684L24.0395 26.6184L8.38158 10.9605Z" fill="black"/>
</svg>
